<svg xmlns="http://www.w3.org/2000/svg" width="512" height="512" viewBox="0 0 512 512"><path fill="none" stroke="#ece2d1" stroke-miterlimit="10" stroke-width=".5" d="M414.2 44.2c2.5.7-.4 2.6-2.2 1.5s-7.4-3.8-5.6-7c2.9-5 5.3 4.6 7.8 5.5Zm-394-3.9c1.3-1 2.2-2.5 3.4-3.6 1.8-2 4.7-1 6.2 1 1 1 2 2.5 1.6 4-.4 1.4-2.4 1.7-3.7 3-1.2.9-1.8 3.6-3.4 3.5-2-.9-4.8-2.5-6-4.3-.6-1.3.6-2.7 1.7-3.5zM300 50.5c-2.4-4.2-.1-5.7 2.5-8.7 1.3-1.2 2-6.4 4.4-4.3 1.9 2.3 4.1 8 2.8 11.6-1 2-3 4.3-4.8 5.4-2.6 1-3.9-2-4.7-3.8zm105.6 9.2q-4.9.7-6.7-3.7c-.3-.9-.6-2 0-2.8q.5-.9 2-1.2c2.8-.6 6-.4 8.8-.5 4.2 0 8.1-1.1 12.5-1.7 1.5-.4 9.9-.4 7.9 2.4q-1 .9-3 2.1-2.2 2-4.2 4.1c-2.5 2.6-5 .9-8.6.5-2.9-.3-5.7.4-8.5.8zm-72.4 12.9c-3.4-.2-3.4-3.4.3-5q3-1.6 5.8 0 1.2.7 2.4.8 1 0 .8.7c-1.1 1.4-2.8 3.3-4.6 3.7l-2.2-.2q-1.1-.2-2.3 0zM108.8 94.2c2-1.6 6.8 2.8 5.2 4.9-1.5 1.6-7.3-2.3-5.3-4.8zm180.6.7c3-2 4.9-8.2 9.2-5.8 2.5 1.5 3.4 5.4 1.8 7.9-1.2 2-3.5 3-5.5 4-3.3 2-7.2 2.2-10.8 3.6-.9.2-2.2 1.2-2.9.6-.6-3 5-8.3 8-10.2zM14.3 118.2c-1 3 6.5 8.1 11 8.2.9 0 1.8-.8 1-1.6-2.8-2.6-11-10-12-6.6Zm107.7 6.7c1.4-3.3 3 5.6 2.9 6.7q0 2.9-1.5.7a11 11 0 0 1-1.4-7.3zm-18.3 14.3c2.1-.9 4.2-1.5 5.3-3.6q.7-1.6 2.2-2.5c4.1-1 3.2 4.9 6.2 8.3q.7.7 1.3 1.6c2 2.3.8 3.6-2 3.2-3.5-.7-6.9-2-10 0q-1.4 1-2.7.8c-1.5-.7-2.8-3.4-2.3-5.4q.5-1.5 1.8-2.3zm137.8 10.4c-1.3-3.8 7.5-11.1 10.5-6.3 2.5 4-1.1 13.3-3 14q-.6 0-.8-.5l-1.3-2.2c-1.2-2.2-4.4-2.8-5.3-4.9zm-104.1 7.5c-1-1.1-1.5-2.9 0-3.8 3-1.7 8 2 10.2 4 1.4 1.5-1.1 1.5-2 1.8-2 .5-3.5 2.6-5.4 2.2-1.8-.5-1.7-2.8-2.7-4zm17.6 6.4c-4.4-2 5.6-6.6 7-6.2 2.4.6 1 4.7-.1 6q-.7.5-1.3-.1c-1.6-.9-4 .8-5.5.3zm-86.6 28.6c-1.2-.8 1.6-4 2.1-4.7 2.7-2.2 6 1.8 5.9 3.9s-6.2 1.3-8 .9Zm290.8-7.6q.1-1.9-.9-3.3c-.6-1-1.3-1.6-1-2.2.8-2.1 6.7 0 8 1.2 4 3.6-3.1 13.6-4.4 12q-.6-1-.9-2.3c-.5-1.8-1.1-3.3-.8-5.2zm-354.1-.6c1.7-2.9 6.4-4.4 7.4-8 .8-2 1-4.3 1.9-6 1.5-2.8 5.1-1.4 6.5.8 2.1 3 1.3 7.8-.9 10.8-1.3 1.6-3.4 2.5-4.5 4.3-1.4 2.1-1.5 5.1-2.7 7.3s-2.7 0-5-2.3c-1.6-1.7-3.9-4.3-2.7-6.7zm484.2 3.9c3.3-.7 4.8 1.4 6.4-2.8.6-.8 1.4.5 1.4 2.4a8 8 0 0 1-1.2 4.1c-.8 1.4-2.1 3.4-3.2 3.5-1.6 0-2.6-1.7-3.7-2.8-1.3-1.4-2.1-3.6.1-4.3zm-375.4 19.6c-1.6-1.3-.2-3.3 1.6-3.3q2-.1 3.7.9c3.7 1.5 14 2.5 14 4 0 2-10 0-13.2-.2-2.5-.1-4.8-.3-6-1.3zm262.9 5.6c3-.6 6.8-3.4 9.2-2.4 1.2.5 2.5 3 3.5 3.9 2 1.7-.2-3.6-.6-4.6-.7-2-2-4.7-4.5-4-2.4.5-4.3 3.2-6.6 4.3-4.5 2.8-13.6 1-16 6.2-.5 1.6 0 4.3 1.9 4.6 1.4.2 2.7-1.7 4.2-3.2 2.3-2.4 5.5-3.9 8.7-4.8zm-78.5 1.7c1-2.3 4.1.1 5 1.1.6.8 2 3.6 1 4.2-1.6 1.1-6.8-3.4-6-5.3Zm-186.8 4c-1-1-.2-2.7 1.1-3 3.3-1 5.6 4 8.2 5.7 1.3 1-1.2.8-3.6 0-1.7-.7-4.4-1.6-5.6-2.6z"/><path fill="none" stroke="#ece2d1" stroke-miterlimit="10" stroke-width=".5" d="M372.4 219.4c-.6-1 .6-2.4 1.8-2.4q1.2 0 2.2.4c2.1.6 4.7.5 6.4 1.8l3.8 2.8c.5.4-1 .5-3.3.4-3.3-.4-8.5-.7-10.8-2.8zm-40.7 4.8c-1.3-1.9 0-5 2.4-5 2 0 6.6 2 6 4.5q-.4.8-1.1 1.6c-1 1-1.6 2-2.6 1.9a8 8 0 0 1-4.7-2.8zm64.3 1.2c-1.8-.5-6.4-.9-7 .7-.3.9.6 1.5 1.3 1.9q4.1 1.2 7.8 3.7c1.7 1 3.8 2.3 4 1-.5-2.9-3.3-6.1-6-7.2zM290.8 228c1.3.4 1.4 2 1.7 3.4.2.8.6 1.7.3 1.6l-.4-.3c-.8-.8-4-4.3-1.7-4.7zM105 260.8c-3.3-.8-6.7 1.8-10 1-1.7-.4-2.3-2.6-1.2-4 2-2.5 5.5-2.5 8.2-3.8 2.5-1 7.7-5.8 8.8-1.4.3 1.9-.1 4-.2 6-.1 1.6 0 2.8-.6 3.5-.8.7-3-.9-4.8-1.3zm275.7-.9c-3.2-1.4-5-4.5-7.9-6.3-3.5-2-4.8-3.7-.7-6.2 5.5-3.7 7.9 4.3 10.8 10.1 2.9 5.2 5.5 6.6-2 2.5zm-85.1 5.1q-3.1-.4-.9-2.5c1.7-1.3 7.5-5.4 9.1-3.5.8 1.3 0 3 0 4.4-.4 1.7-.3 3-1.3 3.1-2.2 0-4.5-1.3-6.7-1.5zm101.1-2c-1.1-1.5-2.7-3-3-4.8-.2-2.1 2.1-4.4 2.2-6.6 0-2.2-1.3-4.7-1.5-7-.6-3.7-.4-8 4.2-4.4 4.1 3.3 10 4.9 15 3.2 2.6-.8 5-2.4 7.7-2.6 1.2-.1 2.4.6 2 2-1.3 3.3-4.9 5-8 6.2s-6.9 2.2-8.7 5.3c-1 1.8-.8 4.1 0 6 .3 1.5 1.7 3.4.4 4.8a10 10 0 0 1-6.9.7 7 7 0 0 1-3.3-2.6zm-331.5 5.7c1.5-1.2 4.6 0 4.8 1.9.3 1.5.1 3.2.8 4.6.3 1-2.3-.2-4.3-2-1.2-1-2.6-3-1.4-4.4zm420.1-1.7q-.6-.6-1.5-.4c-3.9.3-4.5 6-6.5 9.4-.1.4-1.2 1.4-.8 1.5 1.3.5 5.4-5.1 7.2-7.2 1-1.3 1.9-2.4 1.7-3.1zM97.2 305.7c1.2-1.8 2.2-.7 2.5.6.3 1.4-.3 3.3-.8 4.5-.4.8-1.2 3.7-2.3 2.1s-.2-6 .6-7.3Zm276.8 6.1c2.2-1.5 4.3-1.4 5.8-.6 1.4.8.6 2-.2 2.1-2.1.6-6.4 2.5-8.5 3-1.9 0 2.2-4 3-4.5Zm-80.6 11.4c-2.3-1.5-5.7-1.4-7.7-3.7-2-2 0-4.7 2.8-5q2.1-.2 4.1.6c7.7 4 12-2.4 6.5 10.1-2 5.6-2.8.3-5.5-1.8zm-58.7 97.4c.9-1 2-2.3 3.4-2.2 1.2 0 2.2 1.3 1.6 2.4-.9 1.6-3.4 2-5.3 3-2.2 1-.5-2.2.2-3zm205.6 4c1.4-4.2 5.5-5.6 9-2.8 3 2.4 1.3 6.1.4 9.6-.4 1.3-.3 2.8-.9 4s-3.5-.2-5.8-2.6c-2-2-3.7-5.4-2.7-8zM36.1 438.7c.4-3.8 10 1.7 13.3 2.5 1.7.5-.4.4-2.5.3-2.3-.1-5.2-.5-7.4-1q-2.7-.7-3.3-1.7Zm331.2 7.3c0 1-1.4 1.7-2.6 1.4-1.4-.4-5.7-6.6-2.3-6.6 2.2 0 4.9 3.6 4.9 5.2Zm-277.6-4.4c1.5-2.1 2-4.8 3.3-7.2l1.4-2.8c1.2-2.5 0-5-.5-7.5q-.4-2.4.6-4.7c1.1-2.4 3.7-4.3 3.8-7 .2-2.3-.9-5-1-7.6 0-4.1-.8-8.3.6-12 1.8-5.1 4.8-5.6 7.6-.8 2.1 3 1.8 6.5 1.8 10 .4 4.1.2 8.7 1.8 12.3l1.3 2.8c1.3 2.7-1.1 5-3 6.8C99 431.5 103 457 95 451.2c-2.5-1.8-7.3-.6-8.6-2.2s1.8-5.3 3.4-7.4ZM405 453.5c-1 .6-5.6 2.5-4.8.9 1.3-2.6 5.5-6 8.6-3.4 2 1.6-2.2 1.7-3.8 2.5Zm-267.4-4.1c-4.2 0-5 4.6-7 7.3-.1.3-.4.7.2.5 2.6-.7 14.5-7.9 7-7.8zm54.7 32.9q1.8-1 4-.8c1.8.7-.2 4-1.6 6.9l-1.3 3c-.4.7-1.5-1.1-2-3.4-.5-1.8-.8-4.6.8-5.7zM90.2 493.1q-1 .4-2.6-1.7-1.4-1.6-3.1-4c-3.3-4.3-7.5-9.9-11.7-12.5-2-1.3-4.2-2.1-6.3-3.3q-3.7-2.2-7.2-5c-1.6-1-4-3-3-5.1.9-1.2 2.6-1.2 3.9-.7 3.8 1.3 5.7 5.4 8.8 7.3q3 1.3 6.3 1.8c3.8.6 6.2 1.7 7.8-.9.8-1.2 1.1-2.9 1.8-4 2.4-3.7 4.3 5 4.6 6.5.8 4-.8 7.2-.4 11.4.3 2.7 1.5 5.6 1.7 8.3q0 1.5-.6 1.9Zm64.5.3c2-1.3 4.4-2.5 6.8-1.7 1.9.6 3.6 2.4 5 2s1.6-2.1 1-3.7c-1.2-2.6-4.3-5.2-7.3-5.3-2.3 0-3.4 2.7-5.2 4.8-1.7 2.2-4 4.6-5.6 6.8q-.8 1-.5 1.1c.5.1 4-2.9 5.6-3.9zM496-3.2c-.6 2.8-2 3.8-4.6 4.6-2.9.9-5.6 2.8-8.4 4.5-5.5 3-3 8.5-4.2 14.2-.4 3.3-3.9 7.2-1.2 10 1 1 2.3 1.4 3 2.6 2 3.6-2.3 10.6-6.1 12.6-2.4 1.7-7.3 2.6-7 6.1.3 1.7 2.5 3.3 2.8 5 .4 4-5.1 2.8-7.7 3.4-2.4.4-4.9 2.3-7.3 1.2-1.7-.8-2.8-3.5-4.5-4.7-3.3-2.4-5.2 2.3-6.4 4.7-1.9 4-5.8 6.8-8.3 10.4a22 22 0 0 0-4.4 15c0 3.7.3 10.3-3.4 10.6-2.4.2.8-7.8.3-14.3-.7-4.1-4-9.9-8.8-9.2-3.3.7-5.4 3.8-8.1 5.6-3 2.2-6.7 3-9.6 5-3.4 2.6-7.3 6-7-1a26 26 0 0 0-2.6-11.7c-.9-1.8-1.8-3.6-1.3-5.7.4-2 1.6-4 1.2-6-.5-2.4-3-4.5-2.7-6.8.8-4.9 8.6-4.2 10.8-7s-1.1-6.2-.6-9.4c.7-4.3 4.8-8.5 0-12.3-1.7-1.2-4-1.6-5.2-3.3-1-1.8-.5-5.1 1.5-6.3 2.1-1.5 6.1-.5 9-2 3-1.2 5.3-4.5 8.2-5.7 3.5-.4 1.2 9.7 2 12 .2 3.3 3.2 5.8 3.7 9 .3 3.4-1.6 7.3 1.3 10 3.2 3.3 11.7 7 15.6 3.6 1.4-1.3 2.6-2.9 4.3-3.7 1.9-1 4.6-1 6-2.2 1.7-1.2.9-4 2-5.3q1-.5 2.6.6c2.3 1.4 4.5 4.3 6.7 4.9 5 .7 3.4-7.3 4.3-10.2 1.1-3.4 3-6.5 3.1-10 .6-3.4 1.9-6.6 2-10.1-.1-7.9 5-8 12.2-8m-94.5 504.9c2.4-1 3.2-4 4.4-6.1q.8-1.5 1.4-1.3c.5 0 .7.9.7 1.4.4 4.1-3.2 11.5-5 10-.7-.8-1.2-2-2-2.7q-.6-.8.4-1.2zm-47.5 10.3c.5-1.3 9.4-5.7 9.4-2.7.1.7-.5 2.8-1.4 2.5-1.6-.5-4.2.4-6 .5-1 .1-2 0-2-.3ZM50 514.8c0-4.7-2.6-8.5-4.8-12.3-.9-1.6-.3-4.5-2.6-4.8-1.5-.2-2.6 1.2-2.8 2.6-.7 2.6.8 5.2.9 7.6q0 2.4-.4 4.7M166-.7 162.4.7c-3 1.2-5.3 3.6-8.1 3.2-3.2-.3-7.2-3.7-8.3 1.4-3.5 11.5 5.5 5.9 10.7 12.3 2.7 3.7-2.4 5.2-3 8.3-.3 2.5 2.1 5.7 0 8-.8 1.2-2.3 2.2-2.8 3.5-.6 1.8 1.2 2.7 3 2.8 3 .3 6.4-1.9 9.2-.2 2 1.3 2.4 4.6 4 6.7 1.2 2 4.1 3.7 4 6.2-.3 1.5-2.2 2.3-4.3 2.2-4.5-.1-8.4-3.7-12.8-3.8-3.2 0-3.2 3.9-4.7 6-1.8 2.1-5.8 2.7-4.3 6.4 1.3 3.4 5.1 5.4 6.9 8.4 1.4 2.5 3.3 9 .6 11-1.2.7-2.8.6-4.1.6-2 0-4 .1-5.2-1-1.5-1.3-2.5-3.4-4.2-4.7-.8-.8-2-1.6-2.1-2.9-.4-1.8 2-4 2.2-6.6q.3-2.4-1.2-3.8c-2.2-2-5.7.3-8-.7-2-.7-2.8-3.1-2.1-5 .4-1.4 1.3-2.8 1-4.2-.4-1.6-2-2.5-2.8-4-.9-1.4.3-3.5 0-5.3 0-1.8-1.4-3.5-1-5.4.2-1.8 1.5-4 1.3-5.1-1.1-3.2-6.3 1.4-8.3 1.8q-1.5.5-3 .3c-3-.3-6-2.6-8-.1-1.4 1.8-2.5 4.7-1.4 7 .7 1.5 2.7 3.1 2.7 4.8-.2 3.6-5.2 3.3-7.7 4.3q-2.3 1-1.6 3.2c1.1 2.7 6.4 5.6 6.6 8.1.1 1.9-1.8 3-3.2 3.8-3.4 1.8-7.6.7-10.9 2.5-2.4 1.4-3.6 4.3-6 5.9-2 1.5-5.3 2.2-7 1.2-4.7-3.1 4.5-14.8.2-17.1-1.5-.4-4.5.8-6.6 2-4 2.1-6.3 6.6-10 9q-1.6.7-2.3-.7c-.5-1.3-.2-3-.1-4.4.3-3.4-3.9-3-6.1-4-3.1-1.3-1.6-5 1.2-6.8 3-2.2 7.1-1.8 10.5-2.6 5.5-2-4.2-7.6-6.9-8.4-2.2-1-5.3-.7-5.5-2.7q.4-1.2 1.2-2.2c3.1-3.2.5-6-.8-9.2-1.1-3.4.7-7.4 2.8-10.2 1.5-1.7 4.3-2 6.8-3.3 1.1-.5 2.4-1.3 3.6-1.3 3 .3 1.2 5.3 1 7.4-1.5 7.1 1.4 5 6.6 7.8 2 1.4 3.4 4 5.5 5.2 5.3 2.8 2.7-9.6 4.6-11.7.8-1.8 2.7-2.3 4.5-1.8 1.2.2 2.8.7 3.7 0 1.1-1 1.2-3.2 1.8-4.7a7 7 0 0 1 3.7-4.4c4-2.1 9 3.8 12.7 1 1.4-1.7.1-4.5.9-6.5.6-2.2 3.4-4.1 3.7-5.8.2-2.7-4.1-2.9-6.1-3.4a59 59 0 0 1-7.8-1.6m166.2.4c3 1.6 9 4.2 6 8-.9 1.2-2.3 2.2-2.8 3.7s1 3.5 1.1 5.8c.2 1.7-.4 3.5-.6 5.2-.5 2.3 1 5.9-1.2 6.7-1 .2-2.2-.6-3-1.3-3.2-2.9-3.4-9-7-11.5-1.4-1-3.2-1.4-4.6-2.4s-2.5-2.2-3.8-2.2c-3.7.2-5.1 6.3-9 6.4-3.9-1-4-8.6-3-11.9.7-2 1.3-4 0-5.8"/><path fill="none" stroke="#ece2d1" stroke-miterlimit="10" stroke-width=".5" d="M303-.8 298.8 4c-2 2.4-4.2 5.8-6.8 6-1.8.4-4-1.4-5.5-.6-.6.4-.3 2.2 0 3.2 1.1 3.3 3 6.7 2 9.6-.6 2.2-4 2.9-5.8 4.7-2 2.1-3.2 5.2-5.7 7-5.4 3.8-13 6-19.3 3.7-3-1.4-4-8-8-7.4-1.9.6-2.7 3.7-4.8 4.6-2.5 1.3-5.3-.8-8-.3-2.4.2-4.8 2.8-7.3 2.9-2.7.3-5.3-2-5.1-4.7 0-1.9 1.1-3.6 1.4-5.4.4-2.3-.7-4.7-1-7.2l-.5-5c-.6-5.2-2-10.7.1-15.8M62-2.6c1.3.6 2.8 1.1 3.2 2.5.7 2-3 5.9-4 9-.6 1.7-.6 4.4 1.5 5.1 1.8.5 3.6-.8 5.3-1.6 2.3-1.1 5.7-2.5 8-1 1.8 1 2.2 4 1.1 6-1 2.5-4.1 4.6-4.3 6.2 0 1.8 2.2 2.8 3.6 3.3 3.6 1 4.9-3.4 7-5.3 4.8-4.4 6.7-3.6 6.5-10.4.5-2.7 3.9-2.5 6-2.4 4.3 0 10.3 3 11.8-2.2.7-4.6-7-1.6-9-2.8-1.9-1.1-1.7-4-3-5.8"/><path fill="none" stroke="#ece2d1" stroke-miterlimit="10" stroke-width=".5" d="M278 .5q1 2 1.4 4.2c.3 2-.2 4-.4 5.3q0 .8.3 1.5c1 1.5 6 3 7 5.9 1.8 5.3-4.8 3.6-7.1 6-1.4 1.3-1.5 3.7-2.7 5.3-2.5 3.4-10.4 4.8-14.3 2.4-2.1-1.4-3.2-4-4.5-6.2-1.6-2.8-5-6-7.8-7q-1.3-.2-2.6 1.6c-2.9 3-3.4 8.5-7.8 9.9-2.3.7-6.8 2.1-8.1 1.3-1.2-1-.2-2.8 0-4.1q1-3.3 2.3-6.4c.7-1.7 1.5-3.4 1.3-4.8-.3-2.1-2.6-3-4.2-4.2s-2-3.1-2.4-5.1q-.6-1.7-.8-3.3c-.3-2.6 3.6-3.3 6.2-4M133.4-3.4c2.4.1 2.9 2.6 2.4 4.7-.4 2.4-1.6 4.7-1.9 4.3v-.1c-.9-4-8.2-8.4-.7-9zM518.8 6.8c-2-3.6-6.2-7.8-10.4-6-3 1.4-2.8 6-6.1 7.3q-1.6.6-3.4 1c-2.3.8-3.7 2.5-6 3.6-2.4 1.2-5.8 2.2-5.3 5.4.3 6 5.6 9.4 9.2 13.8 1.5 1.7 3 3.4 3 4.7 0 1.5-2.4 2-3.7 2.2-2.3.3-4.6.5-6.5 2-1.9 1.3-3 3.7-2 5.3 1.8 2.7 8.7 2.1 7.3 6.9-2.8 6.9-14.4-2.3-15.2 5-.3 3 1.7 5.7 2.6 8.3q.7 2-.3 3.3c-2.7 2.9-7.5.4-10.8 1-2 .3-3.9 1-5.8 1-5 .1-10.3-2-15.2-1-2.5.6-4.5 4-6.5 6.2s-4.5 5-1.3 7.6c2.4 2.3 10 7.2 8.8 10.6-1.2 2-4.2 2.2-6 3.4-3.5 2.9 3.3 4.8 5.3 5.9 3 1.5 5.3 4.3 7.6 6.9 1.9 2 .5 4.6-.9 6.5q-2.1 3.3-4.8 6c-4.8 3.8-5.5 3.7-6.3 10-2 7-10.4 12-11.7 11.2-1.9-1.3.2-8-.7-11.8-.5-2.7-1.8-6 0-8.5 1-1.8 3.6-2.7 4.2-4.9.5-2-1.3-5.3-3.3-6.3-2.4-1-5-.1-7.4-.5-2.5-.3-5.2-1.1-7-2.6-2-1.6-2.9-4.1-5-5.4-1.8-1.2-4.5-1.3-6-2.3-3-2 .7-5 2.1-6.8 6.5-7.7 2-9-5.6-6.2-3.3 1.2-5.7 4.2-8.5 6.8-2.5 2.5-5.3 4.7-7.2 7.6q-1.7 3.1-2.7 6.5c-.5 1.1-1 2.7-2 3-2.2.2-3.2-4.8-3.7-6.7-.6-2.3-1-5.3.6-7.1 5.2-5.5 3.4-5.1 3.4-11.9 0-1.7 1.2-3.6.8-5.3-1.3-1.8-5-.3-7 0-3.2.5-8 1.2-9.3-2.4-.5-2 2-4 2.2-6.2.4-2.3-1.3-4.3-3-5.6-2.3-1.6-6.2-4.6-5.4-7.5q.6-1.1 2.9-.4t4.8 1.3c2.4.5 8.7 1.4 9.4-1.8-.3-4-6-6.5-1.8-11 2.2-2.2 5.4-3.1 8.1-4.2q2.1-1 2.6-2.6c.3-1.9-1.8-4.5-1.6-6.8 0-1.4.6-2.8.9-4.2.3-2.1-1-3.3-3-4.4-3.1-1.6-6.7-3-9-5.8-2-3.2 4.9-4.4 6.3-6.7 2.9-3.7 4.8-9.3 10.4-9.2 2.8 0 5.2 2.4 8 1.7 3-.8 4.9-4 7.8-5 4-1.6 10.5-1.8 11.7 3 .3 1.5 0 3.1 0 4.7-.1 2.1.8 4 1.2 6 .4 2.6 0 5.2.8 7.8 1.2 2.5 2.6 9.8 6 8 4.7-2.6 6-9.5 10.8-11.8 4.4-1.8 8.2 2 11.5 4.5 4 2.8 5.7-1.7 4.5-5.1-1.3-4.2-5-7.4-6.8-11.2-.7-1.4-1.4-4.2.7-4.6 1.5-.3 3.9 1.5 5.8 1.5 3.8-.4 5-5.2 7-8"/><path fill="none" stroke="#ece2d1" stroke-miterlimit="10" stroke-width=".5" d="M417.1-3.8c5 1.1 10.6 4.8 10.6 10.1q-.2 2.3 0 4.4c.2 2 1.4 3.8 2 6 .4.9.7 2.2 1.6 2.7 1.6.7 3.5-2.2 5.5-3 2-1.1 4.6-.7 6.7-1q1-.3 1.1-.9c0-1.9-2.4-3.2-3.5-4.7-1.6-2-1.9-4.3-2.5-6.8q-.4-1.5-.3-3c.2-2.2 2.4-2.9 4.7-3.3m-43.6-.1C397.8.2 401-.1 401.6 3c.5 3 3.2-5 3.8-6.2"/><path fill="none" stroke="#ece2d1" stroke-miterlimit="10" stroke-width=".5" d="m518.1 21.7-2.7-1.5c-2-1.4-3.3-3.9-5.8-4.5a9 9 0 0 0-7.7 1.5c-4 4 7 13.5 4.7 21.1a8 8 0 0 1-2.5 3.8c-1.1 1-3.6 2-3.8 3.6-.2 1.1 1.2 2 2 2.7a7 7 0 0 1 3.1 7c-.8 7-2.7 8.9-9.2 9.8q-2.1.5-3.4 2c-2 2.3-2 6.1-3.7 8.5-1.9 3-5.6 3.2-8.7 3.7q-4.3 1-1.4 4.4c4.4 4.5 7.5 10.6-2 8.8-6.2-.4-10.3.8-15-4-1.4-1-2.8-2.6-4.4-3.2-2.3-1-3.7.9-3.2 2.9.6 3 3 5.5 3.4 8.5.8 2.7-2 6 .3 8.3 3.4 2.5 8.8 2.3 9.9 7.4.6 2.4-.2 5 .3 7.2 1.4 4.9 2 5.5-3.4 7.5-3 1.4-4.9 5-7.5 7.4q-1.9 1.7-3.5 3.7c-1.8 2-3 4.7-5.1 6.3-2.4 1.8-5.6 2.8-6.3 6-1.4 8.6-3.5 8-8.9 13.7-2.2 2.7-3.3 6-6 8.3-2.3 2.2-5.4 3.5-7.7 5.7-2.4 2-3.8 2.5-5.9-.3-1.5-1.9-3.7-3.8-3.2-5.1 1.1-2.4 6-1.8 6.4-4.8.3-3.2-4-7.3-.4-9.9 5.8-3.7 5-4.1 5.2-10.8.2-2 1.2-4 1.3-6 .1-2.5-2.1-4.5-1.9-7 0-2.7 3-6 3-8.2 0-2.4-3.6-2.7-5.6-2.8a36 36 0 0 1-12-3c-2-1.1-1.9-3.6-2.3-5.6-.3-2.2-1.3-4.2-2-6.6q-.3-2-1-3.8c-.8-1.3-2 .1-2.6 1A22 22 0 0 0 395 117c-.2 5.1 3.5 11.6-.8 16-1.7 1.4-4.6 1.4-7.7 1.5-1.7 0-3.7 0-5.2-1-1.3-.8-1.7-2.5-2.4-4-1.6-2.9-3-4.7-2.2-8q.4-1.8-.5-3.4c-1.2-2.3-5.7-2.8-6.2-5.8-.2-1.6 1-3.2 1.8-4.6 1.7-3.5 4-7.3 4.6-11.3-.5-5.2-6.8-.2-9.4-1.2-1.6-.6-2.2-2.4-3.3-3.5-2.1-2.3-6.6-.8-5.6-5.3.5-2.6 2.2-5.6 3-8q.6-1.9 0-3c-2.6-2.4-8 2.4-10-.5-1.2-3.1 4.3-8-.3-9.7-1.4-.6-3.3-.6-4.5-1.5-1.6-1.2 0-4-.7-6-1-2.7-5-4.2-4.4-7.4.5-2.3 3.9-3.8 4.2-6 .5-2.7-3-4.8-2.9-7.3.7-.8 2.5.6 3.3 1.2 2.9 2.2 6.3 3.9 8.7 6.5q2 2.3 3.8 4.7 2.9 3 7 4.4c1.3.4 3.6 1.4 4.4 0 .6-1.5-.4-3.7-.3-5.8 0-4 4.6-2.5 7.1-3.2 4.8-1 4.4-4.7 4.2-8.8 0-1.8.2-4.2-1.8-4.8-3-1-6.4 1.2-9.4.5-1.9-.5-3.1-2.9-4.1-5.3q-1.6-3 .1-6c1-1.5 2-3.3 1-5-.4-1-1.4-2-1.5-3.1-.1-1.5 2.3-2.8 4-4.7l1.4-1.7c3.7-5.8 7 .7 16.5-6.6M-5.7 446.8C0 451.7 4 462 6.7 460c.8-.6-7.5-13 2.1-13.3.8-.1.8-1 0-1.2a65 65 0 0 0-16.2-1.7M142.7 1.7q-.7 1.5-1.7 3c-2.3 3.3-5.8 5.1-4.8 9.2a6 6 0 0 0 4.5 4.3c1.6.4 3.8.3 5 1.6 1.1 1.4-.1 4.4.5 6.9 1.5 4.4.8 5.2-1.4 9-2 3.6 2 6.6 2.7 10 .9 8.1-11.2 5-12.6-.8-1.3-3.3.3-6.7.4-10q-.2-2.3-1.7-4.4c-5.4-10.4-8.7-3-15.6-.3-3.2 1.2-6.8-1-10.2 0-3.8 1.1-5.7 4.8-8.2 7.7-1.1 1.3-2.5 2.4-3.3 4-1 1.9-.6 4.4-1.6 6.5-.7 1.7-2.2 3.2-2.4 5.1-.4 2.9 2.3 6.2.9 9-1.3 3-11.8 12.6-9.9 3.3.8-3.3 3-10.9-2.3-11.3-1.7 0-3.9 1.5-5.4 1-.8-.3-.8-1.4-.8-2.2.4-3.9-3-5.7-5-9.1-1.3-2-1.9-6.5 2-5.4 3.2.7 6.9 4.2 10.5 3.5 3.8-1 4-6 6.5-8.4 2-2.1 5.3-2.4 7-4.2 4-5 2.4-7.9 10.4-8.4 3.1-.5 7.2-1.3 10.2-2 1.4-.4 3.6-1 3.2-2.8-.3-2-3.1-4.2-2-6.5.8-1.7 4.2-2.8 5-4.6.7-1.3.3-2.7-.3-3.9q-1.2-2.4-2.2-4.9m67.5 0c.2 1.7 1 4-.2 5.4-.8.8-2.5.5-3-.3l-1-2m77-2.6c.5 2.3 3.8 4.9 2.4 7.2-.6 1-2 1.6-3 1.2l-2.9-1.6c-5.6-1.3-9.3-1.7-4.8-7.6m174.5 2c2 1.2 3.2 3.7 4.8 5.6 1.8 2.3 1.6-.2 1.8-1.6q.6-3.1 2.7-6"/><path fill="none" stroke="#ece2d1" stroke-miterlimit="10" stroke-width=".5" d="M519.5 38.7c-5-9-7-2.7-7.4 3.5-.1 4 1.3 7.2 1.6 10.7.2 2.7-.7 5.4-1.2 8-.5 2.3.6 4.4 1.5 6.4 1.7 3.7 2.2 7.9 2.9 12C518 84.8 514.7 97 507 92c-2.8-2.4-4.2-6.7-6-10-1.3-2.4-2.6-5-4.4-4.7-1.6.3-2.7 1.6-3.9 2.6-1.3 1.5-4 3-4.3 5-.3 2.1 1.9 4.2 3 6 3 4.8 4.8 9 5.6 14.8.5 2.7 1.1 10.3-3.4 7.1-5.7-4.9-5-6.7-13.3-7.3-2.9-1-4.6-4.3-7.1-6.2-2.1-1.8-6-4-7.4-3.2-2.4 2 2.4 7.6 3.7 10.2 2.7 4 3.6 8.7 6.8 12.4 2 2.4 5 4.8 4.6 8.3-.5 2.8-1.7 6.9-3.5 8.6-1.2 1-2.8 1-4.3 1-8.5.3-2.2 9.5-8.3 10.8-2.8.4-5.3 2.1-8.2 2.7-2.3.3-5.3-.7-7 .5-2.4 1.7-1.2 5.7-2.4 8.1-1.7 3.5-6.6 3-9 5.7-3.3 4-4.3 10-8.5 13.2-1.8 1.4-4.8 2-5.7 3.7-1.7 2.5 3 7.9.3 9.3-2.5.3-5-2-7.6-1.5-2.6.3-4.8 3-7 3.7-3.1.9-4.6-2.9-4.7-5.4-.2-4 4.8-8.7-.2-11.2-7.9-3.4-7-2.8-6.8-11.4.3-2.9 4.6-2.1 6.2-4.4 1-1.4.5-3.4.6-5-.1-3.8 4.2-4.5 6.4-7.1 4.7-6.3-3.7-8.3 1.2-16.6.9-2.6-2.8-2.8-4.2-4.2-2.2-1.6-4.9-6.4-6.7-7q-1-.1-1.2 1.1c-.5 3 .8 11-1.7 15.6-3.8 6.9-9.3 2.4-14.5 2-2.3.1-3.6 2.3-5.3 3.4-5 2.5-6.7 2.2-9.7 7.6-4.8 6.5-9.5 6.4-8.2 16 0 4-4.2.2-6-1.4-3-2.6-.8-6.3 0-9.4.6-2.7.2-5.5 1.4-7.4.8-1.5 2.8-2.6 3-4.3.1-2.1-2.5-3.8-3.4-5.6-1.8-5 5.7-5.1 8.9-7.2 3.5-1.6 4.6-5.6 2.5-8.6-1.5-2.2-4.7-1.3-6.5-3-1.2-2 .5-7 .3-9.9-.1-2.9 1.4-6.8-1.3-7.9-6.3 0-6.9 9.3-11.6 12-5.4 4-8.3-1.9-7-6.8 1.5-5.2 1.5-10.8 3.8-15.8 1-2.2 3.8-4.2 3.3-6.7-.8-2-5.4-3.2-8-3.3-4.3-.2-5.5 6.6-8.7 8.4-1.5.8-3.1.1-4.2-1-1-1.2-2.1-3-3.3-4-4.2-2.6-7.2 6-8.6 9-3.8 11.3-7.4.7-13.2 10-1.6 1.9-4.6 3-4.7 4.7.2 3.9 5.5 5 7 8 2.2 5.4-9.5 6.7-13 6.5-4-.5-4.4-5.5-7-7.8-1.8-1.6-4.5-1.2-7.3-.6-4 .7-7.2 2.2-8.6 5.8-1 2.8-4.6 2.8-6.2 5-1 1.7-1.3 3.8-2.2 5.7-.8 2.1-2.5 4-2.5 6.4.5 4.3 6 7.2 8.2 11 2.6 2.6 2.4 8-2 8-6.9-.8-5 2.7-7.7 7-1.2 1.2-3.2 1.2-4.6 2.2-2.4 2-2.6 6.2-3.8 9-1.7 4.6 3.6 5.5 3.7 9.5 0 3.3-3.5 7.6-3.3 11.6-.5 4.9 5.7 6.3 6.7 10.5.2 3.1-2 7.7-5.6 7.5-2.5-.4-5.1-2.2-7.7-2.9-8-2.4-15.7 3-23 6.3-3 1-3.6-1.6-5.4-4.2-1.8-3-6.3-4.6-7-7.7 1-2.7 6.8-.3 9-.1q4.9.6 9.6-.9c5.7-1.5 17.6-5.7 12.8-13.5-2.2-4.2-8.5-4.7-10-9.4-.7-3.3 3.3-3.3 5.6-3.8q3-.7 5.3-3 2.9-2 3.4-5.2c0-2.5-.5-5.8-2.6-7.5-2.5-1.4-5.2 1.8-7.9 1-5.5-2-4.2-9.5-13-6.7-2.5.7-8.4 4.9-8.4 2 .9-3.2 14.5-8.3 8-12.2-1.3-.6-3.1-1-4.1-1.8-2.4-2.4 2.5-4 4.5-4 3.1-.1 5.7 1.6 8.5 2.2 3 .5 6.5-.3 9.8 0 6.6.8 8.7-1.3 11.6-6.9 1.7-2.4 4.7-4.5 5.3-7.3.7-2.8-1.6-5-2.5-7.4-.8-5 0-13.9 5.7-16 3.2-1.3 8 2 10.8-1 1.4-1.6 2-4.8 1.1-6.6-1.9-2.8-6-3.7-7-7.4-1.4-3.4-.2-7.7 1.8-10.6 1.1-.6 2.4.4 3.4 1 3 2 7.2 1.6 10 4.2 2.2 1.9 3 5.5 5.6 7 2 1.2 4.8-1.6 6.4-4.3 1.4-2.2 2.8-7.3 6-5.2 7.5 6.2 4.6 1 11.3 1.7 1.9.4 4.8 1.4 5.6-1a22 22 0 0 0 .3-10.5c-.4-1.5-1.2-3.1-.6-4.5 2.2-2.9 7 0 10-.9 4.8-1.6-1-8-3.2-10.4-2.3-2-5.3-4.6 0-5.3 10.2-1.9 8.8 5.3 15.3 9.3 1.8.8 4.2.6 5.3-1.2 1.5-2.5 0-5.7-.2-8.4-.4-3.4 1-6.5.3-9.6-.8-3.7-4-6.8-3.8-10.8 0-2 1.2-3.6 3.2-3.5 4.3.6 6.7 5.2 10.2 7.4 2.2 1.6 4.8 2.5 7 4.1s4.3 4.7 6.3 4.7c2.1-.1 4-2 5-3.8 2.2-4.7-8.8-6-10.7-11.1q-1.3-2.1-2-4.6c-1-5 .1-7.5-4.9-10-.7-.7-1.8-1.3-1.4-2.2 1.1-1 3.5-.8 5-1.4 2.6-1 3-4.1 5.3-5.2 3.4-1 5-4.3 8.3-5.6 3.4-.9 7.1 0 10.7-.6m139.9 177.7q-1.6 2.7-2 5.7c-.4 2 0 4.3-.8 6-1.4 3-6 3.2-8 1-1.8-2-.9-5.5-.7-8.6 0-7.6.8-8.7 8-11.6 7-3.1-3.7-8 5.7-13.4M80.8 515c.4-2.8-.8-5.3-1.7-7.9-1-3-.8-6.4-2-9.4-1.6-3.9-3.9-8.5-7.4-5.5-2.2 1-7 9.8-9 5.6-1.5-3.4.5-7.4-1-10.7-1-1.6-3.6-2.6-4.1-4.5q-.4-1.2 0-2.5c1.3-3.3 3.2-6.7-1.3-8.4-2.6-.9-5 .5-7.6 1.7-2 1-4 1.7-5.3 3.2s-2 3.5-4 4.2c-3.4 1.2-7.7-2-11 .2-3.4 2.8.6 8.4-2.8 11-3.6 2.7-9.6.3-13.2 2.6-2.3 1.2-3.2 4-4.8 5.8-2.2 2.3-5.6 4.3-7.5 7.3"/><path fill="none" stroke="#ece2d1" stroke-miterlimit="10" stroke-width=".5" d="M-7 482.2c5.3.7 4.2 4.8 7 7.1 5.6 2 8.7-8.3 13-10.1 3.2-2 7.2-1.3 10.8-1.1 4.2.5 5.9-3.5 7.8-6.5 1.4-2 3.4-3 5.3-4.6s3.3-4 5.2-5.6c1-1.3 3.4-2.4 3-4.3s-4.5-3.8-6-6c-4.6-8.3 13.4-4.6 14.5-11 .7-4-3.6-8.8-3.6-13.3 0-1.7 0-4.6 2-5 1.6.2 3.8 4 6.2 4.2 2.8.7 7.4 1 5.8 4.3-.7 1.4-2 3-1.8 4.6.2 2 2.6 3.2 3.5 4.8q1 1.8.6 4c-1 8.7-1.3 10.1 6.5 14.2 3.3 2.2 5 1.7 7.6-1.2 4.4-4.9 11.4-8.2 15.3-1 1.6 3.3 1.2 7 1.5 10.6 0 3.6.9 7.3.6 10.7-.1 2.5-1 5.9 1.8 7 1.9 1 4.2.9 5.9 2.1 2.2 1.5 3 5 5.6 5.6 5.9 1.6 8.4-9.3 11.3-6.8 1 1.4.5 4 .2 5.6-.6 3.3-2.4 6.5-5.8 7.2-3.3.8-7.4 0-9.8 3-1 1-1.9 2.5-3 3.5-8.3 5.7-8.3-7.8-15.8 8.3"/><path fill="none" stroke="#ece2d1" stroke-miterlimit="10" stroke-width=".5" d="M55.6 515.8c-1.9-4.6.4-9.9-1.3-14.5-1-2.8-3.5-4.8-4.2-7.4-.8-2.5-.2-5.3-1.2-7.7-2.5-4.9-6.4 1.3-9 2.8-2.3 1.6-6.5 0-7.7 3-.6 2.8 1.7 5.5 2.3 8.2 1.2 3.8.9 8.5-1.3 10.5-4.3 3-7.4-3.9-10.1-6.3-2-1.9-6.1-3.9-7.2-2.8-1.1 1.4 0 3.8-1.4 5-1.2 1.4-4.1 1.4-5.9 2.3-3 1.7 1.4 4.4 3.4 5.4m62.5.8c-1.6-1.7-3-4.3-3-6.5.2-14-2.9-1.5-7.5 5.4"/><path fill="none" stroke="#ece2d1" stroke-miterlimit="10" stroke-width=".5" d="M-7.6 466.8c2.6 1.4 6.3 2.2 7.6 4.8 1.5 2.4.7 8.2 4.8 7.7a16 16 0 0 0 7.7-7.3c.8-1.4 1.4-3.4 2.9-4.3 3-1.3 4.4 3.9 7.2 4 1.4-.2 2.6-3.5 4.9-5.5 2-2.1 9-4.8 4.4-8-3-1.8-9-1.4-11.2-3.9a3 3 0 0 1 .5-4.6c1.8-1.3 4.5-1.4 6.6-2.3 5-2.2.7-4.4-1.6-6.6a9 9 0 0 1-2.4-4.3c-1.3-7.3 14.9-.5 15.8-4.8.2-3-15.4-7.6-7.2-9.7 8-1.5 9.4.7 13-7.5 1.4-2.1 4.4-2.4 7.3-2.9 1.9-.2 4-.5 5.5.9 1.4 1.2 1.9 3.6 1.8 5.5 0 2-.2 3.7.6 4.6 2.6 2.6 7.7 0 10.4 1.7 3.2 1.9 1.2 6-.2 8.6-1.4 2.7.4 5.2 2.2 7.3 1.9 2.3 3.7 4.8 6.1 3.4 4.2-3.3 6.8-8.2 9.5-12.7q1.2-1.5 1.2-3.6c-.3-3-2.7-6.3-2.2-9.5.2-3 3-5.4 3.4-7.8.2-1.7-.5-3.3-.7-5-.5-3 .3-6.1.2-9.4 0-2.2-.3-4.4 0-6.6.2-4.5 3.8-7.4 6.3-10.8 2.1-2.8 3.5-6.4 5.9-9l2.5-2.9c1.9-2.2 1.5-5.1 1.1-7.8a38 38 0 0 1-.3-8c0-3.5 3.2-5 5.8-6.5 2.3-1.6 3.7-4.8 5.6-7.6 2.3-3.4 4.3-4.4 5.8.5 1 2.8 2.8 5.7 2 8.3-1.4 4.7-8.4 5.5-9.2 10.5-.6 4.3 4.2 6.3 6.1 9.4 1 1.9 0 4.8-.5 7.8-.6 8.2-.4 7-6.1 11.9-2 2.5.7 4.8 1.6 7.4.8 2 .1 4.3 1 6.3.7 1.7 3.4 2.2 5.3 3.6 2.2 1.8 4.7 4 7.6 2.4q3-1.5 5.7-3.3c2.8-1.6 5.8-2.4 8.1-4.3 2.5-1.8 5.9-6.8 9-5.5q1.2.9.8 2.4c-.5 5.5-7.1 7.7-9 12.4-.8 1.7-1.1 3.7-2.3 5.2-1.7 2-4.9 2.6-6.3 5-1.7 2.5-1 6.6-3 8.8-4.2 3.9-7.6-7-11-.6-1.2 2-1.4 6.3-4.6 6.3-3.9-.7-8.4-5.4-8.2 2q0 3.5-.3 7c0 2.4 0 4.9-1 7.1-1.5 3-4.3 5.4-5 8.8-.8 4.5 1.9 6.6 5.9 7.1 3.6.6 7.3 3.6 3.3 6.8-2 1.9-6.6 4.2-6.4 7 .9 3.7 9 2.8 11.8 1.6 3.3-1.3 6.7-2.1 9.8-4 1.8-1 3.3-2.9 5.4-3.4 4-.4 5.1 5.9 4 8.9-.8 3-4.2 5.4-5.3 7.6-1 1.8-.3 4 0 6 .4 2.3 0 4.9-.4 7.4-1 4.7-2.2 9 .1 13.5m32.7 0q-.5-3.1 2.4-4.5 3.8-2 7.5-3.4c2.5-.8 5-1.2 6.2-3 1.5-2.5 1.6-6.2 4.8-7.2 13-4 10 3.1 18 2.5q4.3-.8 8.2-2.6c1.8-.8 3.8-1.4 5.8-.6 1.3.4 2.5 1.2 3.9 1.6 2.6.6 5.9-.9 8.9-.8 8.2 0 10.3-9.3 12.2-15.6 3.7-8.7 6.9-2.5 12.8-2.5 2.8-.3 5-3.7 4.4-6.5-1.2-4.4-2.3-6.5 2.8-9 3.1-1.7 7-2.4 9.8-4.7 1.6-1.5 1.6-4 2.2-6.7.8-3 1.6-7 4.7-8.3 3-1.1 6.5 1.6 9.3 1.2 6.6-1.6 2.1-10.2 4.5-14.7 1.4-3.4 4-6.2 6-9.2 3.4-4 5.7 1.6 2.7 4.6-1.5 1.9-3.4 3.6-4.6 5.6-5.1 8.3 1 18-4 22.4-4.9 3.7-12.2 2.3-14.7 9.2-1.8 3.9 0 8.9-1.8 12.4-2.3 3.7-6.4 4.4-6.1 9.7q.1 4-3.9 4.1c-2.9-.1-5.8-.3-6.8 3-2.4 8.4-3.7 5.6-10.9 7.3-2.6 1-6.8 2-6.8 4.4.2 2 4.2 5.3 4 8 0 2.3-2.4 3.2-4.4 4"/><path fill="none" stroke="#ece2d1" stroke-miterlimit="10" stroke-width=".5" d="M-6.6 450.6c1.8 3 2.4 6.8 4.7 9.5 2 2.3 5.2 3 6.9 5 .9 1 1.6 2.5 2.5 3.4q.5.5 1.1.3c1.8-.8 5.4-6.4 5.1-9-.3-2.2-2.9-4-3.4-6-.7-3.3 3.9-4.3 5.6-6.7 2-2.4-1.2-4.5-1.7-6.8-.9-4.5 4.5-8.5 6.3-12.1 1.3-3-1.2-6.5 1-9.2 2.3-3.4 8.5-1.3 10-4.7.9-1.8-.5-5 .8-6.8 2.5-3 5.7 2 7.9 2.6a2 2 0 0 0 1.8-.2c1.6-1 2.9-4.2 4.6-5 1.6-1 3.3-.1 4.9.3 2 .7 4 .4 6 .3 6.4-.4 6.5 6.8 9 11 1.3 2 3.7 2.5 5.6 3.9 3.5 2.4 3.6 8.3 4 12.7.7 4 3.2 3.4 4.6.8 2.2-3.7 2-8.2 1.5-12.2l-2.2-12c-2.4-7-3.2-5.6 2.6-10.7 5-5.5-7-5.3-9.2-7.2-2.1-1.2 0-3.1 1.3-4.1q2.7-1.9 4.4-4.7c1.5-3.2 1.8-7 5.2-9 3.8-2.2 6 5.9 9.8.7 2.8-5 5.8-10.3 6-16 .1-5-1-10.1 1.3-14.7 1.2-2.6 1.5-5.8 3.4-8 1.3-1.3 3.6-1.6 5.7-2.6q2.1-1 4.1-2.6c4.7-3.6 5.2-4 3.6-9.4-1.1-4.4 2.9-7.3 7-6.1 3.7.9 6.4 4.4 10.3 4.2 7.2-.3 10.8-7.3 14.8-12.2 3.5-4.5 9.5-3.6 6.5 2.9-1.2 2.4-3.6 4.2-5.7 6.1-1.4 1.3-3.1 3.1-2.1 5.2.5 1.3 1.8 2.6 1.6 4.2-.7 2.6-5.6 5-7.9 7-2.2 1.8-6 3.3-6.7 5.4-.8 2.3 1 4.5 1.5 6.7.8 4.1-1.8 9.1-4.4 12.2-.9 1-2.3 2-2.4 3.2.2 3 6.1 3.8 6 7.1-.5 1.7-2.5 2.8-2.7 4.6-.2 1.4.5 3 .6 4.5.2 3.4-2.7 6.2-4.7 9.5-3 5 1 5.8 5.2 5s8-2.4 10.1-5.7c1.4-2 2-5 4-6.1 3.9-1.3 5.7 4.7 10.2.6 5.4-4.8 8.6-13.1 11.2-19.8 1.2-2.5 3-3.2 4.4-.1q1 2.1 1.7 4.6c3.6 12.6 12.4 3.8 19.7 1 2.7-1.1 13.2-.7 14.6 2.2.4 3-6.6.7-8.6 1.5-4.3 1.2-7.5 4.7-11.8 6-4 1.7-9.4 2-12.2 4.8-2.1 2.3-3.3 5.8-6.5 7-1.6.7-3.5 1-5 2-2.3 1.4-2.2 4.9-3.8 7.5-1.5 2.7-5 4.7-5.7 8-.4 1.7-.1 3.8-1 5.3-1 1.4-3 1.9-4.3 2.8a11 11 0 0 0-4.2 6.4c-.4 4.1 4.7 4.1 7.5 7.2 2 2 3.7 5.6 2 8.3-1.2 1.6-3.8 1.7-5.8 2.7-1.7.6-3.2 2-5 1.8-2.4-.6-5-4.2-7.5-2.2-1.4 1.1-1.5 4.3-2.7 6a3.4 3.4 0 0 1-5 1c-1.7-1.4-2.3-4.3-4.6-5-2.9-.8-9.1.5-9.1 4.4-.4 4 4.5 7.4 2.5 10.9-.6 1.1-1.7 2.2-2 3.5-.2 1.8 1.9 4 2.4 6.3.4 1.3.4 2.9.8 4.1.7 1.7 2.5 1.4 3.8 0 1.6-1.6 1.3-4.3 2.8-6 1.3-1.3 4-1.9 6.4-3 2-1.1 5.2-2.4 6.2.5.6 1.7.7 3.7 1.2 5.4 1.3 4.3 3.7 7.7 3.6 12.2 0 4 0 8.9-2.2 11.8-1.1 1.5-3 2.6-3.6 4.4-.9 2.3 1.4 5.9 2.2 9q1.4 5.5 6.3 3l7.8-4.3c4.8-3.3 6.8 2 11.8-2q4.4-3.2 6.5-8 .8-2.4 2.2-4.5c1.2-1.7 3.1-2.5 4.7-3.7 1.6-1 2.5-2.9 3.8-4.5 1.4-1.8 3-3.3 3.7-5.6.7-2.1 1.2-6.4 4.4-5.3 2.6.8 5.3 5 8 5.7 5.7 1 5.9-7.4 9-10.3 1.4-.5 1 3.1 1 4 .1 3.3 1.2 6.4.1 9.4-.2 2.7-11.3 12.9-3.7 11.5 4.2-.8 8.5-4.3 12.8-2.6 1.5.6 2.9 1.6 4.4 2 2.3.8 4.1-1.1 3.9-3.4 0-2.6-2-5.6-1.9-8.1q0-2.1 2-2.9c2.4-.5 5.2-.2 7-2.5q1.2-1.6 3.2-2.1c1.6-.3 3.7.2 5-.8 1.5-1.8.8-4.8 2.3-6.7q1.5-1.7 2.6-3.5c1.1-1.7 1-4.4 2.9-5.4a3 3 0 0 1 1.6-.2c7.5 2.2 10.3 5 13.9-4.8 1-2.2 1.1-5 2.3-7 1.6-2.6 5.3-2.3 7.6-4 2.5-1.6 2.1-5.3 3.6-7.7 1.2-2.1 3.7-3.4 4.8-5.6 1-1.8.5-4 1.2-5.9 1.2-2.7 5.5-2.4 7.6-4.5 2.1-1.8 1.4-5 2.5-7.4 2-3.6 7.6-1 10.6-4.2 2.8-1.9 4.2-12.7 7.8-10.9 1.2 1.3 1.5 3.4 2.4 5 1.1 2 3.5 3.6 4 5.5 1 3.7-4.9 5.3-6.4 8.5-1.9 3.1 1.7 6.3 1 9.4-.5 2.3-2.6 3.8-3.8 5.8s-1.3 4.9-2.5 6.7c-1.1 2.2-4 3-4.9 5.4-.7 2.6 2.3 7.2.2 10.4-1.2 2.3-3.6 3.8-4.6 6.2-1.4 3.7-1.9 9.5-5.8 11.2-2.7 1.2-5.8 0-8.6.8-2.3.6-4.5 2.5-3.7 4.9 2 4.2 4.9 5.6 1.1 10.7-2.1 3.5-6.2 5.7-5.6 10.2.5 3.4 1 8.7-3.3 9.6-2.3.5-4.8-.7-7 0-2.3.8-4.6 4-7 5.4-6.2 3.4-1.7 6 1.8 10M-7.7 320q3.5.5 5.4-2.3c2.6-4 5.8-.7 6.1 2.8.3 2.8 0 5.8.9 8.4.9 3 3.7 6.2 7 5.5 2.7-.6 4.2-3.3 6.5-4.4s5.2.1 7.9-.2c1.9-.2 3.8-1.5 5.7-1 3.4.7-.7 4.1-2.3 4.7-4.3 1.7-6.7 6.6-10.5 8.8q-1.7.8-3.3 2c-1.4 1.2-2 3-3.5 4.3-1.5 1.4-4.5 2.7-6 2.2q-1-.4-1.6-1.4c-.7-1.6-1.3-3.4-3-4.3-1-.7-2.4-1-3.8-1.9-1.5-.7-2.8-2-4-3.1"/><path fill="none" stroke="#ece2d1" stroke-miterlimit="10" stroke-width=".5" d="M-5.8 438.5c6.8 2.2 7.9-.3 12.8-4.5 1.9-1.6 4.3-2.4 6-4.2 1.9-2.4-.3-5.5-.3-9.1q0-3.2 1.5-6c2.6-4.7 8.3.2 10.5-3.3.7-2.7-1.6-5.5-2-8.2-.8-6.5 3.4-5.4 8-5.5 3.3-.5 5.5-4.7 9-5.5 6.5-1.2.6 5.5.2 8.3q-.3 1.4.8 2c1.3.3 4.2-2.3 6.8-2.8s4.7.7 7 1.2c3.2.8 6.8.6 9 3 2.8 2.2 5.9 13 10.1 10.8 2.5-3.4-1.7-7.6-2-10.9-.5-2 0-4.3-1.6-5.8-5.2-3.4-8.7-4.5-3.3-10.8 3-4.2-6.6-5.6-.9-10.5 2.3-1.8 6.6-2 7.7-3.8q.5-1 .3-2.2a28 28 0 0 1-1.6-11.6c-.2-5.8 5.2-5 8.5-2.3q4.5 3.7 8.5 7.9c2.5 3.3 4.7 4.5 6.2-.3 1.4-4.8.7-10.1.8-15.3-.1-1.6.1-3.8-1.1-5-2.3-1.2-5.5.8-7.9-.5-2.4-1.2-6.7-7.7-2.4-7.8 3.6-.4 10.3 0 11-4.6.1-3.4-4.2-4.4-5.7-6.8-1.3-1.8-1-4.8-1.4-7.5-1.4-5.4-.9-11 3.5-15.2 4.6-5.2 11.4-3.6 11 3.9-.5 7.7-3.2 17.8 6 20 7.7 1 .8-9.2 5.2-13.2 1.8-2.3 4.9-3.3 5.8-5.2 1.3-2 0-4.8 1.4-6.7q1.3-1 3.7.7c3.4 1.6 6.8 6.6 10.1 6.6 5-.8 8.8-12.2 10.8-16.4 2-5.8 5.3-11.8 10.1-15.5 2.4-2.2 8.7-5.1 5.8 1.2-2.1 4.2-6.8 7.8-7.3 12.2-.4 3.9 4.4 3.1 6.4 4.8 1.3 1.2 1.2 3.4 2 4.9 4.3 5.5 14.2 2.2 20.1 4.5 3.5 1.4.5 4.3-1.8 5-2.6 1.3-6.5.4-8.8 1.6-1.4.8-2.1 2.3-3.2 3.4-2 2-5.1.6-7.6 1-3.5.4-5.8 3-4 5.6 3 3.8 8 6.7 2.6 11.4-3.2 2.2-6.1 5-9.7 6.5-2.2 1-6.3 1.3-5 3.7 2.3 2.4 7.1 3.6 7.1 7.6.3 3.6-4 5.1-6 7.5-1.5 2.3 2.4 3.2 2.7 5.2.2 1.5-2.2 3.7-1.9 5.3 1.1 3.3 6.8 4.3 9 1.9 2-2 2-5 2.5-7.6q.8-3.5 2.7-6.9c2.4-6.3 7.6-8.4 13.2-4.2 2.4 1.7 3.6 4.6 5.9 6.5 2 1.7 4.7 1.2 7.5 1.7 2.2.3 4.5 1.1 6.7.5 2-.6 3.7-2.2 5.3-3.6 3.3-2.8 6.8-4.6 8.5-8.5 2.4-5.6 7.4-.3 8.1 3.7.4 1.7 0 4 1 5.4 3 2.4 6.6-2.5 8.5-5.4q1.3-2.8 3-5.4c2.2-2.8 5.4-4.2 6.2-7.8 1.5-8.2 9.2-2.5 12.6 1 4.4 5-3.5 5.7-5.8 9.3-2 2.4-1.6 6.4-4.4 8.3-4.4 2.8-13.2 2.4-14.5 8.6-.4 2.8 1 5.7 1 8.5-.4 4.1-4.8 3.3-8 3.7-2.5.2-4.8 1.8-7.3 1.6-2.3-.4-4.3-2.2-6.7-2.4-2.2-.2-5.4 1.1-6.3 2.7-1.3 3.5 4 6.4 5.7 9.2 2.1 2.5 3.3 5.2 2 8-1.7 4.6-9.8 10.2-11.5 2.7q-.3-2.4-.8-4.4c-1-3.2-5.4-6-8.3-6.1-1.5 0-2.9 2-4.7 3.3-2 1.3-4.6 2.5-4.5 5.2 0 2.5-.6 5.4.2 7.5 3.2 6-2.1 5-6.2 5.8-3.3.8-5.2 4.4-8 6.4-2.4 2.2.6 3.7 2.7 5.4 3 2.5 6 6.6 10.3 4.2 3-1.4 4.6-4.7 7.2-6 3.3-2.4 15.5 3.5 9.6 7.3q-1.4.9-2.5 2c-2.1 2.5-2 6.5-5.5 7.4-1.3.5-3 1-3.7 2.4-1.4 3.5.2 10.1-5 11.1-2.6.4-5.1-2.4-8.1-2.3-3.1-.2-4.6 2.7-4.6 5.5 0 3.6-3.7 4.2-6.1 2.2-2.2-1.6-3.3-4.4-5.4-5.7-5.6-2-5.2 7.5-4 10.7 1.3 5.2 8 6.4 11.4 8.9 3.3 3.2 2.5 8.7 4.8 12.4s7 1.8 9.7-.4q2.6-2 4.7-4.6c2.3-2.4 5.2-4.1 7.2-7 2.4-3 3.9-7.6 8-9 3.6-1.6 7.2 3.2 10 0 3.8-4.4 3.2-11 6-15.8 3.5-4.4 7.7-3.7 9.5-10.1 1.3-3 4.8-2.3 7.7-2.6 1.4-.2 3-1 4.4-1.2 1.5.3-1 3-1.3 3.7-3.1 4.3-4.4 11-5.9 16.3-1.2 4.9-8.2 36 1.3 17.9 1.3-2 2.8-3.6 3.7-5.6s1.1-4.4 2.8-6c1.2-1.3 3.4-1.9 4.9-3 3.7-2.8-.2-8.2 2.8-11.8 2.3-3.7 8.3-11.8 12.2-8 1.8 2.5 1.6 6.4 4.4 8.4 6.3 4.1 5.1-3.6 8.2-6.7 1.6-2.2 7.8-3 6.3-6.5-1.7-2.3-4.8-5.2-1.3-7.6 2.3-1.8 6.5-1.2 8.4-2.8 2.6-2.7-.4-6.8.4-10.1q.4-2.7 3-3.6c3-1 7.2.7 9.2-2 1.4-1.7 1.6-4.7 3.2-6.2 5.5-4.2 8-1 12.3-9 2.4-4.1 7.8-4.7 9.8-8.6 1-1.8 1.2-4.3 2.7-5.7 4.6-2.3 7.9 9 8.2 12.1.1 8.3 11.1 2.7 9.6 11.6-.7 6-8.3 8.4-9.9 13.7-.5 2.8 1.1 5.6 1.3 8.4.6 4.3-2.6 6.8-5.7 9-1.8 1.3-2.8 3.3-4 5.4-2.6 3.6-2.6 7.6-3 11.8-.5 2.8-1.8 5.3-2.3 8-.7 3.1 0 6.4-1 9-1.5 3.1-3.9 6-6.9 7.7-2.3 1.2-5.7 1.2-6.9 3-.9 1.3-.7 3.1-1 4.7-.2 2.3-1.6 4.2-3 5.9-2.5 2.4-2.4 5.5-.6 8.5 1 1.9 2 3.7 3.5 4.5 1.9 1 6.2 2 2 5.4-2.1 1.6-5.1 2.2-7 3.8-1.8 1.5-3 4.2-5.8 4.2-2.7-.1-5.4-1.8-8.1-2-5.2-.6-5.6 3.2-3.5 6.5M-7.5 384.8l2.5-1.4c2-.9 3.9-.5 5.9-1.3 1.9-.7 4-2 6-1.1 3.3 1.3 6.6 5.8 5.1 8.4-1 1.7-3 2.3-4.6 3.1q-3 1.6-2 4.6c3 8.2-2.1 9.9-11.1 10.9m-2-99.6c3.2 2.2 7.7 3.8 10.3 0 2.5-3 2.5-8.3 6.8-6.1 4.2 2.5 10.7 2.2 13.9-1.6q1.1-1.5 2-3.2c1.7-3.6 5.4-5.3 7.6-8.4 3.2-5.4 4.2-7.7 9-2.5 2.4 2.9 6.9 4.3 8.4 7.5.7 1.6.4 3.9-1.2 4.9-2 1.3-5.2.2-7.1 1.3-2 1-2.6 3.5-4 5-1.7 2-4.4 2.6-6.8 4-2.1 1.1-4 2.7-6.3 3.8-3.7 1.8-8.4 2.6-11.6 5-2.3 1.6-3.6 5.8 0 6.2 1.7.2 3.4-.5 5-.9 2.6-.7 5.5-.7 8.5-1.1 2.7-.4 5.1-1.2 7.4-.2q2.3 1 4.5 2.2c8 2.6 7.4.4 7 10 0 3 1.3 11-3.8 9.3-3.2-1.3-5.8-5.6-9.6-4.2-2.1.7-4.6 2.5-5.7 4.3-1.5 2.5 1 4.9 2.7 6.7 2.5 2.5 3.9 6.1 4 9.7 0 6.5-3.6 4.2-8 4.4-1.6 0-4.4 2.1-5.3 0-1-2.5-.8-5.6-1.8-8-1.1-3-4-3.5-6.2-1.5-2.7 2.2-3.5 7.1-7 8.2-5 .3-5.4-6.7-7.3-10.2-.4-.8-1-1.9-1.9-2-2.6-.1-2.7 7.2-3.2 9.8m.4-132.2c2.9-.2 5.6-2 8.6-1.7 2.2.4 3.8 2.7 5.8 4.2 2.6 2.2 7.2 5.5 5.1 9.3-1.5 1.6-3.3-1-4.5-2-3.5-3.2-8.4-3-13.2-2.4m-1.3-66.5c0-1.8.2-4 1-5.6 1.2-2.6 3 0 3.6 1.6 1.7 4.3 2.5 12.8 8.5 12.2q1.8-.7 2.2-2.5c.6-2.6-.6-6 .3-8.5.7-2.5 3.4-3.4 5.3-4.7 3.8-2.8.2-6.9-.3-10.4-.3-1.8-.1-4.2 1.4-5.2 2-.9 3.7 2 5.2 2.8 1.4 1 3.3 1 4.8 1.5 3 1 2.7 4.8 2.8 8.2.2 4.2-2.6 7.8-3.1 11.8-.5 3.1 0 7 4 6.1 3.6-.9 6.7.6 10.3 1 2.4 0 4.9-.5 7.2.4 2.6.8 4.7 3.2 7.4 4.4 1.8 1 3.7 1.5 5.3 2.8 2.2 1.8 3.4 4.7 5.6 6.7s6.4 5.6 3.5 8.5c-2.3 1.6-6.8.5-9.8.5-4.2 0-7.4-.6-9-5a15 15 0 0 0-5-5.8c-4.4-4-8-1.9-13-1.4-4.2.4-9-.9-7.5 4 .8 3.7 8.5 15.8-.5 13-3.7-1-8-3.9-11.8-3.9-2.9.4-6.1 2.3-7.5-1.5-1-2-1-5.5-3.7-6-3-.3-5.5 4-7.4 6.5M196-3.3c-3.6 1.4-1.6 4.7.7 6.6l4.5 2.7c2 1.3 2.9 3.8 4.4 6q1 1.3 1.6 2.8c1.3 4-3.7 5.1-6.3 7-3.2 1.4-2.4 9.2-7.1 7-2.4-1.5-6.9-3.1-7.5-5.7-.4-2 2-4.1 2.4-6.2.5-1.8-1-3.8-2.6-5.1-2.1-1.9-4-.9-5.7.9-1.7 1.6-4.8 3.2-6.5.8-2.5-3.9 1.9-12 3-17.2m340.3 113.5c-4.2-4.8-8.7-13.8-16-13.6-1 2 1.8 4.3 2.4 6.2 1.5 2.9.8 6.4 2 9.5 1 2.6 3.5 4.6 4 7.4.4 4.2-3.6 10.2-7.8 11.9-5.7 1-9-17.4-17.4-15-2.8 3.5 2.5 8.1 3.4 11.8 1.4 3.4.7 7 1.8 10.5 1.1 3 4.2 9.5-1 10.2-2.4 0-4.7-2-7.1-2.3-7.2-.2 1 12.4-6.8 12.6-4-.5-8.6-2.3-13-2.3-2.7-.3-5.4-1-6.2.6-1 2.2 0 4.8-.4 7-.6 5.2-5.9 3-9.2 2.3-4.7-1-6.9 8.1-6.5 11.8.3 2 1.1 5.5-2 5.3-2.5-.2-8-2-7.5 2.3.3 2.2 2.1 4.7 2 7.2.2 3.5-3.4 7.3-7 6.2-4.4-1.6-5.9-8.2-11-4.7a25 25 0 0 1-14.8 3.6c-3.5-.5-3.7-4-4.1-6.8-.5-2.5-1.5-4.6-.5-6.6 1.5-2.5 4.7-5.6.8-7.7-4.9-2.7-8-3.5-6.4-9.6.4-2.7-1-5.8.9-8 1-1.3 2.7-2.2 3.8-3.5 1.4-1.6 1.8-3.7 3.1-5.3 1.8-2.2 5.4-4.4 6.4-7.7 1-1.7 1.6-6.6-1.4-4.6-2.3 1.6-4.4 3.7-7 4.6-2.6 1-5.3 1.3-7 2.3-2.2 1.1-3.4 3.7-5.8 4.4-1.8.6-4-.6-5.7-.2-4.5 1.6-1.6 8.5-6.3 11-3.8 2.5-2.8 5.2-1.7 8.8.5 2.7-.8 5.3-.3 7.8.4 2 1.6 3.7 2.2 5.6 1.2 3.1.7 6.8 1.4 10 .4 2.7 4 10.2-.2 10.4-2-.7-4.2-4.8-7-5.2-3.8-.6-9 0-11.6 3.1-2.5 3.4-2.5 10-4.6 3.5-2-9.2 4.6-11.8 1-22.6-.4-3.9 5.8-6.3 4.3-10.4-3-4-9.6-1.2-9.3-9.1-.1-4 2-7.6 2-11.3-.7-4.8.1-8.4 1.3-13.2.4-10.1 3.8-7.3 7.3-13.4.5-2-.1-5.9-2.5-5.8-1.3.3-2.3 1.9-3.5 2.7-2.2 1.6-5.1 1-7.7 2.5-2.6 1.4-4.3 4.8-7 5.7-5.4.9-1.9-23.4-.6-26.8.5-2.4 5.4-10.2.1-9q-2 .7-4 1c-3.7.7-7.4-.4-7.8 3.5-.3 2.6 0 5.9-2.4 7.5-3 2.6-8.5-1.4-11 2-1.1 4 8 5.6 6.9 10.7-.4 2.1-2.6 3.7-3.8 5.7-1.7 3.3-3 5.4-6.8 6.2-3.5 2.2 5.6 7.3 5 10.8.4 4-5 9.7-8.2 5.3-3-3.8-6.9-8.8-10.5-12.6-2.2-2.8-3.9-6-6.6-8.7-5.2-4.9-5-.5-8.7 2.8-2 1.3-5.3.9-6.7 2.9-1.7 2.6 1.6 4.8 2.7 7 2 5.1 3.2 8 8.2 11.2 2.7 2.2 3 5.7 3.8 8.8.7 3.5 3.1 7 2 10.7-1.2 2.8-4.2.6-5.3-1.1-1.8-2.7-3.7-4.9-7-5.3-2.7-.3-6.7-1.4-8.8.8-.9 1.2-.7 3-1.8 4-2.4 1.5-10 2.5-5 6.2 3.2 2 8 1.8 10.6 4.6 1.5 2-1.2 5 .3 7.3 2.3 4 8.4 5.3 10 9.6.2 1.2-1.2 2-3.3 1.8-5-.3-8.9-4.6-13.8-5.3-5 0-5 6.3-2.8 9.6 1.6 3 2.7 7.6 4.8 9.6 2.5 2.3 6.4 2.2 8.5 5 1.7 2 3.1 5 2.4 6.1-3 2.2-7.6-4-10.9-4.4-3-1.2-15-.7-15 3.2-.2 2.4.8 5-.3 7.1-1.6 3.2-6.3 3.3-8.3.3-3-2.9-2-9.5-6.3-11-2.4-.1-5.1 3.4-7.2 5-4.8 4.6-13.1 5.8-17.2 0-1.6-2.3-1.5-6-3.4-7.8-3.2-3-8.2-1.4-11.3 1-3.1 2.6-6 7-9.2 1.5-3.2-5.3 5-5.9 8-9 3.9-4.3.6-14 9.2-13 8.2 1.2 16.7 5 25 2.5 2.9-.6 5.7-3.9 2.8-6.2-1.5-1.3-4-1.5-5.8-2.2-2.8-1-5.8-7.7-5.5-10.4 1-4.5 6-5.8 10-6.3 2.5-.3 7.7-3.5 5.7-6-1.3-1.5-6-.5-8.5-1.5-2.7-.8-4.5-4.6-7.6-3.5-4.4 1.8-7 8.7-12.2 8-1.4-1.3-1.5-4.1-2.3-6-1.3-3.4-1.4-6.7-4.3-9.5-1.2-1.2-4.9-4.9-1.1-4.7 1.8 0 4.3.9 5.8-.5 1.6-2.1 1.3-6.5-.2-9-1.3-2.2-4.3-3-5.4-5-.7-5.6 8.2-3.6 11.4-2.7 4 1.2 8 1.1 12 2 1.8.4 3.7 1 5.5.4 2.1-.5 1.8-4.1 3.8-4.5 2 .2 4 3.6 6.4 3.6s6.5-2.7 5.5-5.6c-1.6-2.8-7.9-5.7-4.6-9.8.5-1 1.4-2 .7-3-.8-1.3-4.7-1.8-6.6-3-1.5-.9-3.8-2.6-3.3-4.5.8-.7 2.4-.2 3.5 0 5.5 2.1 7.6-2.2 11.5-5 3.8-2.5 14.6-2.3 9.7-9.3-5-7.9-8.9-6.8-16.6-5.8-2.8-.1-5.4-2-8.4-2.9-2.3-.8-5-1.1-6.7-2.8-4.5-5.1 21-7 23.8-8.6 3.3-1.1 6.2 2.4 9.2 1.6 3-1.1 2-14.2 7.6-8.3 2 2 3 6.9 6.4 7.4 1.6 0 3-3.5 5.2-4.2 2.5-.8 4.4 1.4 5.2 3.5 1 3 2.2 14 7 8.6 1.9-2.6.7-8.4 4.6-9 2 0 3.9 2.5 5.8 3.5 2.6 1.5 7.8 1.3 8.5-2.2.3-2.4-2.8-5.2-2-7.5.8-2.6 4-3.3 6.4-4 4.5-.6 5.1-3 .7-4.4-4.2-1.3-9.3 1.6-13.8 1-2.7-.6-3.4-4-5-6.7-1.4-2.3-3.5-5.5-.6-7.5 6.9-3.2 5.3-10 11.8-11 6.8-.9 5.3 11 11.8 9.8 6-1.9 11.8 2.3 16.2 5.9q.7.4 1.6.4c3.2-2.8 1.9-8.5-.8-11.5-3.6-4-7-6.6-2.2-11.6 6-8.2 10.8-6 16 1.1 1.1.9 2.2.3 2.3-1.3.4-11.5-14.6-15.3-23.6-12.3-2 .8-4.2 2.4-6.3 2.5-4.8-.3-1.6-6.9 1.3-8 5.7-2.8 12.7 0 18.5-1.7a87 87 0 0 0 20-7.8"/><path fill="none" stroke="#ece2d1" stroke-miterlimit="10" stroke-width=".5" d="M514.9 195.1c-3.8-.3-9.3-2.5-12.5.3-1 1-.8 2.5 0 3.5 1.2 2 4 3.3 5 5.3 2.6 4-3.8 13-7.9 13.8-4 .7-8.5-2-12 1-.9.5-2 1.6-3 1.3-1.7-.7-2-4.5-4.3-5.2q-1.6-.6-3.8-.6c-2.4 0-5-.3-7.3.5s-4.4 2.7-6.7 4q-2.8 1.3-4.9 3.7l-2.5 3.2c-2.3 2.7-5.5 4.3-7.6 7-3 3.4-5 7.9-8.4 10.8-2.6 2.3-5.9 3.5-8.6 5.6-3.8 2.5-6.2 8-11.1 7-1.8-.2-4.3-.6-5.5 1-2.7 4.8 7 8-2.8 17.2a10 10 0 0 0-3.4 5.2c-.6 2.7-1 5.8-3.5 7.6-2.8 2.4-6.8 2.3-8.2 5-1 2-.3 4.9-.3 7.1 0 2.8-.2 6.7-1.8 8.5q-1.7 1.5-3.8 2.3c-3.5 1.7-4.3 6.2-7.3 8.5-3 2.4-7.7 1.3-11.8 1.5-4.3.3-9.3-.6-6.6-6.1 2.6-4.5 11-4.2 11.3-10.2.4-2.5-1.5-4.7-2.1-7-.7-2.4 1.8-4 4.2-4 2.4-.2 4.9 1 7.3 1 3 .2 3.7-2.8 5-5.8 2.4-5.2 4.6-11 3.1-16.7a7 7 0 0 0-5.8-4.4c-3.4-.3-7 1.1-10-1-6.3-4.2-8.3-9.1-15.6-4-5 3.2-2.1-4.4-1.3-6.6 1.3-3 3-5.6 4-8.9.9-2.2 1.2-6 4-6.3 2 0 3.8 1 5.5 2 3.8 1.8 7 4.7 10.8 5.6 2 .2 2.7-1.8 2.3-3.4-.6-3.8-4.7-7.3-8.2-9.7-2.2-1.8-7.5-3.8-5.2-7.3 2-2.4 5.7-2.4 8.2-.8q3.2 2.1 6 4.6c2.8 2.2 6.3 3.2 9.4 5 2.6 1.4 7.8 5.5 9.8 1.7.7-1.7-1.3-4.6-1.2-6.8 0-1.7 1.4-3 3.3-3.2 2.7-.5 5.2 1 7.4 2.4 2.6 1.7 5.5 2.9 7.9 5 2.2 2.3 5.2 3.9 7.8 1.3 2.4-2.5 5.1-5.8 5.4-9.1.1-1.9-.5-4.8 2-5q2-.3 3.8-.9c2.2-.8 4-2.5 5.9-3.5 2.9-1.5 6.9-1.8 9.5-4.3 1.8-1.5 2.9-3.7 4.2-5.7 1.4-2.2 3.4-4.6 3.3-6.9 0-2.8-2.7-4.5-3.2-7.2-.6-2.6.9-6.5 4.1-5.5 3 .8 6.1 4.5 8.9 4 2.5-.8 2.7-4.1 4.3-6 1.6-2.1 4.6-3.3 5.7-5.5 1.4-2.6 1.4-6.9 5.2-7 1.7 0 3.4.4 5 0 2.3-.6 3.7-3.3 5.8-5.2q1.9-1.4 3.6-3c1.9-1.9 2.3-4.6 2.9-7 1.2-5.5 5.2-9.6 10.5-11m-.8 188c-2.8 0-12 5.7-12.3.9.5-2.9 1.5-5.7 1.1-8.7.1-2.3-1.2-4.2-3.5-4.4-1-.3-2.4-.3-3.2-1.1s.7-3 .3-5c-.3-1.7-2-4-.5-5.4 2.7-1.6 6 1 8.7 1.4 2.6.6 6.4-.5 8.1-2.9 1.5-2.3.7-5.7 2.6-8.2m-2 95.9c-5-4-6.6-.3-7.7 4.3a52 52 0 0 1-2.6 7.5c-1.4 4-5.4 7.3-6.6 10.7l-.7 4c-.2 4.4-5.3 9.4-5.1 12.7.6 3.2 2.8 4.7-2 6-2.8.8-6 .8-8.6 1.9q-2.4 1-4.7 2.5-5.5 3.3-11.6 5.5a20 20 0 0 1-9.2 1q-1.5 0-2.6.3c-2 .8-2.7 3.4-5 3.9-2.5.6-5.4 0-8-.1-5-.3-9.2-.2-13.4-2.7-2.5-1.6-6.5-1.1-8.6-2.5-2.9-2.4-4-8.4-3.7-11.8.4-2.7 1.5-5.2 2.3-7.7 1.7-7 5.6-13 10-18.8 3.1-3.6 2.7-8.3 3.1-12.6.9-5.5 2.3-10.7 1.7-16.2-.2-2.4-.7-4.9-.4-7.2.4-2.6 2.3-5.1 3.3-8 1.1-2.6 2.1-6.6.7-9-.9-1.6-2.9-1.8-4.7-.4-2 1.6-3.3 4.3-4.9 6.5a17 17 0 0 1-10 6.6c-2.8.8-5.7.1-8.2-1.1-5.4-2.4-11.5-5.2-17.5-5.2-2.5.3-4.8.6-7.2 0-2.3-.6-4.8-.8-6.9-1.7-2.2-1-3.8-3.7-5.7-5.4q-2.7-2.4-5.8-4.1c-4.7-3-9-7-13.8-9.3q-3-1.4-6.3-2.2c-2.4-.7-5.2-1.9-7-.3-1.7 1.8 1 4 3 3.5 2.4-.5 5-1 7.4.3 7.1 3.1 14 8.8 19.7 14.2 3.9 4.4 6.1 8.6 12.7 8.6 6 .2 12.2-1 17.9 1.3 4.3 1.5 6 6.6 10.5 7.6l5.2 1.6c4.1 1.4 7.2 4.3 10.7 6.8 6 4 3.5 7.1.4 12q-4 7.8-8.6 15.9a24 24 0 0 1-8.5 8.6c-3.9 2.7-2.2 11.1-4.4 13.7-1.8 1.7-4.4.2-6.8.7-4.8.8-11 3.3-12.5 7.7-1.7 5.4 3.3 8.8 8.2 10.8q4.6 2.1 9.4 1c8.1-3 18.7-3 24.9 4 7.8 10 17.3 24.7 30 27 4.2.4 8.7 1.4 12.8 1.4 3.6-.2 7.4-4.4 6.6-8.2-.4-2.5-3-4.5-2.6-7 .4-3.6 7.4-5 9.3-2.4s-.6 6.6 1.3 9.2c1.5 1.8 4.6.6 6.5 1.7 3.7 1.9 4 11.5 2.5 15.9-.6 1.6-1.9 3-2.8 4.4-2.2 3.3 1 5.8 3.8 7.8"/><path fill="none" stroke="#ece2d1" stroke-miterlimit="10" stroke-width=".5" d="M518.8 468.6c-5.5 3.4-9.5 4.3-15.1.7-4.1-2.8-14.3-4.6-10.3-11.3 3.9-6.4 13.4-11 12.4-19.4-.7-5.2-1-10.6 0-15.7a11 11 0 0 1 3-6.2c2.7-2.9 6-5.6 7.3-9.2l2.4-6m-5.2 110.4c-1.3-9.2-6.7-18.9-10.1-27.8-.8-1.7-1-4 1.4-4.5 5.3-.5 10.4-.7 14.2-4.9m-1.7-88.4c-2.4 1.3-5 3.4-8 3-2.5-.4-4.6-3.5-7-5.2-1.2-.9-4-1.7-3.1.7 4.7 8.5 2.8 9.1 1.9 18.3-.6 7-1.1 7-7.5 8q-1.4.5-2 1.8c-1.3 2.5 0 6.4-1 9.5-.8 2.8-3.4 4.5-5.3 6.5-1.7 1.7-2.7 4.1-4 6.2l-2.3 3c-2.5 2.8-4 5.8-7.8 6-2.3.3-4.8.1-7.2.5-5.7 1-11.3 2.6-17 3-5.8.8-25.6 2.4-23-7.6 1-3.4 3-6.5 3.7-10a29 29 0 0 1 14.8-18.8c6.7-3.7 3.1-6-2.1-8-2.3-1.1-3.3-3.5-3.3-6-.2-5.1.5-11 3.8-14.2 1.8-1.9 6.7-2.9 4.8-6.2-2.7-3.7-4.2-7.1-1.7-11.6 1.4-2.5 3.1-4.8 3.6-7.7l.7-3.4c1.6-7.5 8.5-14.3 4.7-22.2-1-2.8-3.7-4.7-4.5-7.4-.3-1.7 2-2.8 2.6-4.7.7-1.8.5-3.7.7-5.6 1-5.3 2.4-11.2 6.1-15.2q4.5-4.2 8-9.2c2.7-3.6 8.8-8.7 5.8-13.5-1.2-1.1-3.4-.7-4.8.1-3.2 1.7-3.2 5.8-5.4 8.3-1.7 2-4.7 2.2-7.4 3.4q-7 3.7-10.5 10.6c-1.3 2.6-2 6.4-2.7 9a5 5 0 0 1-2.7 3.2c-1.1.6-2.4 1.3-3 2.5-.8 1.7.3 4.7.3 7.4.1 2.3-.2 4.8-1.8 6.4-1.2 1.4-3.2 2.2-3.8 4.1-.5 1.5 0 3.6.2 5.6v5.3c0 2.9 1.7 5.4 1 7.7-.5 1.6-1.8 3-2.8 4.4-2.2 3.5-3 8.2-7.3 9.7q-2.4.8-5 1.1c-3.8.5-7.8 1.3-11.5.4-2.2-.5-4.1-1.7-6.2-2.4-8-2-8-1.8-10-9.6-1.2-3.2-4.7-1.8-7.3-2.3-2.7-.4-5-3-7.3-2-1.6.6-2.6 2.4-4.2 3-5.2 1.5-9.2-3.5-13.5-5.5-3.1-1.5-6.9-2.3-10.5-3.3-11.7-3.7-10 3.2-9.6 12 0 2.1 2 .7 3.3 0 7.8-4.2 9.8.4 16 4 6.7 3.1 4.2 5.1 4.1 11q.2 1.5 1.4 1.5c1.6.3 4.6-2 6.7-1.9 2.3-.2 3.3 2.7 4.8 3.5 1 .7 2.4.6 3.6 1 2.3.4 4.4 2.3 7.4 2.5 2.9.2 6-.1 8.6 1.3 3.5 2.3 6.6 5.4 10.1 7.6 2.6 2 4.8 4 7.8 4.5 3.7.6 7.8.3 11.2 2.2 2.5 1.2 4.8 4.2 2.7 6.4-1.5 1.4-4.7-.2-5.5 2s.2 5.5-.5 8c-1 4.8-6 8-10.7 6.4-3-.8-5.9-2.6-9-3-4.1-.7-6 2.4-2.4 5 2.8 2 6.4 3.6 7.6 7 2.3 6.9-3.4 12-9.6 13.6a18 18 0 0 1-12.8.5c-4-1.5-7.8-4-11.6-6-1.7-.9-7.2-3.3-5.4.6 3.9 6 11.8 9.3 6 17.5-.7 1.3-2.3 2.9-1.3 4.1 1 .9 2.4 1.1 3.6 1.6 2.6.8 4.6 1.9 7.5 2.6 2 .5 4.2 1.5 4.7 3.6.9 3.3-2.6 5.4-4.3 7.6a8 8 0 0 0-1.6 4.5c-.2 1.7.7 3.6 2.6 3 4.7-1.6 7.2-7 11.6-9.3q2.4-1.2 5-1.3c4.9-.5 6.8 7.8 10.7 5.3 3.2-2.3.8-7.5 3.7-10.1 2.4-1.8 6.5-.7 8.2 1.6q1.4 2 2.6 4.2c1.4 2.3 3.7 4 5.1 6.3 1.6 2.4 2.7 5.3 5.1 7 2 1.5 4.6 1.5 6 2.2s1.8 2.4 2.9 3.6a4 4 0 0 0 2 1c2.6.7 5.9.8 7.7 2.8 1.4 1.6 1.1 3.9 1.6 6 .4 2 1.5 4 1.5 6.2-.2 3.8-2 8-2 12.2"/><path fill="none" stroke="#ece2d1" stroke-miterlimit="10" stroke-width=".5" d="M518.8 455c-1.9 4.2-4.2 10.9-9 11.5-2.3 0-3.6-2.3-5.7-2.9-3-.8-8.1 1.2-8.3-3.4.4-7.3 9.7-8.6 12.6-14.7 2.2-4 0-7.8 2-11.5.9-1.9 3-3.3 3.7-5.2.3-1.2-.7-2.4-1.5-3.3-3.5-3.3-1.4-5.5 1.7-8.8q2.5-3 5.3-5.8M364.2 515.3c-1.6-1.8-2.2-4.6-4.5-5.7-2.5-1.3-7.6-3.9-10-2.8-.8 1 .5 2.5 1.4 3 1 .9 3.6 1 4 2.3.1 1-2.1 2-3.4 2.4M-6.7 283c6.8 1.4 14.7-.8 19-6.4 2-2.7 3.5-6.2 6.7-7.5 2-1 4.3-1 6.5-1.3 6-1 8.7-2.1 14.3.4 3 1 5-2 7.2-3.6 2-1.7 4.6-2.7 5.9-4.6 2-3.4 1.6-8.6 6-10.2q5.3-2.1 10.7-1.7c2.1.2 4.3.3 6.3-.5 12.5-4 0-12.1 14.7-13.7 3.2-.3 5.8 1 8.8.9s6.9-1.3 9.5-.5c3.2.6 4.5 5.1 6.6 5.5 3 .4 6.6-5 10.7-5.2 3.5-.4 6.4 2.5 9.6 5.2 3.7 3 7.3 7.9 4.4 12.6-2.6 4.3-8.2 6.6-11.2 10.8s-5.7 8.7-9.2 12.5c-1.8 2.2-2.2 6.3-5.5 6.6-3.8-.4-7.8.5-11.6.7-1.8 0-3.6-.4-5.4 0q-2.6.7-5 2c-5.2 2.4-11.2 3.6-15.8 7.3-3.8 3.1-4.3 8.5-6.4 12.6-1 2-2.3 3.9-3 6-.7 2.6-.2 5.2.1 8 0 1.3.5 3.2 1.2 4 1.6 1.8 3.4-1 3.9-2.4 1.7-5.2-1.4-11.4 1.4-16.5 5.6-10.6 21.2-9.9 31.6-10 2.5.3 5.3.8 7.7-.4q1.5-.7 3-1.7c2.3-1.4 5-2.2 6.3-4 .8-1.2 1.1-2.8 1.8-4.1 2.2-4 8-3.6 10.7-7.1 4.4-4.4 4.7-13.2 11.1-15.7 2.3-.8 4.7.6 7 .6 2.8-.1 4.6-3.1 7-5.5 3.5-3.4 7.6-7 12.6-7.1 4 .2 2.9 4.3 2.6 7.9 0 1.4-2 19.8 2 11.6 1.7-3.6 1.7-9.8 4.1-12.5 1.7-1.4 3.8-1 6-1 5.3-.3 10.2 2 14 5.2 5.8 3.7 4.6 12 13 8.3 2.7-1.2 4.4-3.7 7-4.1 2.4-.4 5.9.1 6.9 2 .6 1.4-.1 3.2-.1 4.6-.2 4.7 8.4-2.5 12.2.5 2 1.2 2.7 3.8 4.1 5.5 1.8 2.4 5.5 3.6 5.3 7-1.4 10.6-18.3 4.2-24.2 18.7-1.6 3.7-1.5 8-3.3 11.6-3 7-9.9 8-15.7 10.8-5.5 4 10.6 1.3 12.1 1.3 3.3-.6 5.7-2.9 7.8-5.8 4-4.6 4-10.8 7.3-15.7 3.8-5.7 10.9-4.6 13.4 1.6 4.1 8.1 4.5-1 6.2-4.4s5.6-6.5 8.7-4.6c2.8 1.6 3.8 5.2 5.6 7.6 1.4 2 3 2 3.1 0 .4-2.7-1.5-7.9 2-8.5 2.5-.2 5 1.3 7.4.3 2.3-.8 4.4-3.3 6.8-2.4 2.4 1.3 1.5 4.7 2.2 6.8s2.2 1 3.3-.7c1.5-2.6 2.2-6 4.5-8.1 3.9-3.7 5.6-.4 9 1 2.1.5 3.8-1.3 5.5-2.3 6.4-4.2 7.7 3.2 8.7 7.9 1.3 3.8 5.2 7 3.7 11.4-.7 2.5-3.4 4.5-3.3 5.5.3 1 2.2.6 3.2.6 4.3-.7 9 1 4.5 5.5-3.3 2.7-7.9 3.3-11 6.2-5.7 4.3-2 10.9-5.9 14.4-3.6 2-5.8-3.4-8.5-4.8-2-1.2-4.5-.7-7-.5-3.6-.3-6.6 1.4-10 2.3-1 .2-2.2 0-3.1.3-2 .6 2 4.3 2.3 6.3.5 1.6.2 3.4-1 4.5-2 1.9-5.2 1.3-5.9 3.7-.1 1 0 1.5-.2 2.4.2 2.8-4 4-2.9 6.5 1 2.1 3.7 4.4 2 6.9-1 1.6-3.2 2.3-5 2.9-3.2.8-6.2 2-9.3 2.2q-5.1-.1-8.3 3.8-2.1 2.4-4.7 4c-3 2-6.7 2.8-7.7 5.9-.8 2.4-.7 5.1-2.3 7.2-1.2 2-13 11-6 11 12.6-2.5 12.3-16.8 26.7-23.7 16.3-9 5.6 11.6 20.8-1.2q4.7-2.2 5-7c.6-5.2.7-10.7 2.9-15.2 1.3-3.3 6.8-8.3 9.8-4.4 1 1.8.9 4.3 1.6 6.3l1.5 3.5c1 2.1 1.1 4.6 2.4 4.2 4.1-2.5 6.7-9 10.2-12.4 6-7.6 14-3.8 16.3-15.5.6-1.3 1-3.8 2.3-4 1.3.8.9 3.4 1 4.9-.1 3.7.5 7.5-.3 11.1-.9 3-3 11.3 3 8.3 5.6-4.2 8.4-6.4 14 .1 5.8 5 4.5 9.7 1.7 15.8-6 14.2 4.7 4.8 9.4.5 4.6-4.3 4.7 0 7.1 3 2.1 2 6.8-.4 10-.2 1.7 0 3 1.4 4.5 2.4 2.3 1.9 5.2-.6 7.7 0 3.4 1 6.4 6.1 6.7 9.9.7 6-5 6-8.7 9-2 1.9-3 4.8-5 6.8-1.8 2-4.4 3-5.6 4.8-1.5 2.1-1 5-2.2 7.4-4.1 7.6-13.7-4.6-18.7-3-2.3 1.6-1.2 5.2-2 8.1a10 10 0 0 1-2.6 4.9c-1.2 1.3-5.2 4.6-.8 4 2.2-.4 4.7-1.8 7.1-1.3 3.1.8 6.1 5 8.6 7.8 2.4 2.7 1.6 6.5-2.3 7.3-3.4.8-6.6-.4-10.1 0-2.4.4-7.5 1.5-8 4.3q0 .9 1.6 1.6c2.6 1.3 6 2 8.6 3.3 3 1.5 3.5 4.8 5.6 5.2 3 .7 6.7-2.1 9.2.2 2.8 3.6-7.3 7.4-4 10.7 1.1 1 3.1 1.6 3 3.4-.4 2.6-3.8 4.5-3.7 7.3.1 2 3 3.7 5 5.8 1.1 1.2 2.2 2.8 3.8 3.4 3.4 1 5.7-3.2 5.8-6 .4-3-1.5-6.7 1.3-7.4 3-.4 7 3 6.5-2.5-.6-4.7 6.8-9.2 9.5-4.4 1 1.8.5 4.1 1 6 .6 2.4 3.3 2.1 5.2 2a23 23 0 0 1 13.3 3.5c3.9 3.3 9.3 4.5 11.7 9.4 1.4 3 3.3 7.5.6 10-1.8 1.1-4 1.3-6 1.8-2.7.7-5.1 2-7.4 1.8-4.3-.9-8.7-2.6-13-3.6-4.3-1.8-7.3.7-11.3 2.7q-3 1.3-6 2.2c-6.2 2.7-12 5.2-18.6 3.3"/><path fill="none" stroke="#ece2d1" stroke-miterlimit="10" stroke-width=".5" d="M-7.4 92.7c5.5-5.5 4.7.2 8 3.3q1.5 1 3.2.6c2.4-.4 4.8-1 7.3-.4 5.8 1.3 14 5.5 11.8 9.5-2.5 3-7 3.2-10.1 5.2-1.7 1-2.7 2-2.2 2.5 1 .8 3 .3 4.3.3 4.4-.4 7.7-.4 11 2.1 2.7 2.2 6.8 6.8 6.5 10.3-1 2.5-5.8 2.2-8.2 2.3-4.4.2-7.5-3-11-5.2-3.6-2.5-10.5-2.1-11 3 0 .8.3 2.3 1.3 2.4 1 0 2.1-2.7 4.2-2.9q1.8-.1 3.4 1 2.4 1.4 4.2 3.4c2 1.9 3.6 4.3 5.7 4.7 2 .5 4-.5 6-.5s3.9.7 5.8.8c2.6.4 5.6-1 8.1-.4 5 1.3 5.3 7.8 7.2 12q1.4 3.3 5 2.6 3-.6 6.2-.2c4 .1 8 3.3 11.5.6 3.2-2.8 6.7-4.9 9.9-7.8 2.2-2 4.2-4.6 6.5-6.5 5-3.8 10.9-7.4 14-14.1 2-3.3 3-9 7.5-9.2 2.8 0 4.8 3 3.1 5.6-1.2 2-3.5 3.8-5.1 5.7-2.8 3.3-6.3 5.7-9.6 8.4-3.9 3.3-7.5 7.9-7.9 13.2-.3 2.8 1.4 5 2.4 7.4.9 1.8 1 4.1 2.7 5.5 1.6 1.4 5 .8 7.6 1 3.3.2 8 2.3 8.6 5.4.5 5.4-8.5 9.2-13 8.7-2.3 0-5-.6-7 .4-1.2 1 .6 2.8 1 4 1.8 3.7 1.7 7.1 5.7 5 2.7-1.7 5.9-2.1 8.6-.4q3.8 2.1 5.7 5.8c.8 1.5 1.3 3.3 2.7 4.2s3.9.4 6.3.1c2.3-.2 4.8-.6 7.1-.1 3.1.9 3.2 5.4 7.2 4.3 6.2-2.2 10 1.6 14.2 6.2 2.1 2.9 6.2 5.4 6.8 8.7.3 2.3-.8 4.6-1 7-.4 2-.5 4.2-1.4 6.1-1.2 3-4.2 5-7 3.2-1.6-1-2.7-2.7-4.5-3.5-2-1-4 .4-6.4.8-1.7.3-3.5 0-5.2.3-3 .5-5.6 3.7-9 3.8-4.7.4-8.8-2.1-13-3.7-3.2-1.3-6.8-1.8-9-4.1-2.2-2.6-5-7.4-8.8-6.7-2.8.9-.2 4.7-.9 6.8-.4 3.1-4 5.2-6.8 6.6-4.2 2.4-6.1 3.3-9.2-.4-1.4-1.4-2.3-2-3.2.2-2 6.7-7.4 5-12.2 8a8 8 0 0 0-2.5 3c-1.3 2.6-2.6 6.6-6.3 4.9-3.7-1.2-6.3-5-9.1-7-2.7-1.6-6.6-1.6-9.7-3-5.4-1.9.2 3.6 1.4 5 2.2 2.2 3.5 4.4 5.7 6.2 2 1.7 4.5 2.5 6.5 4 3 2 2.5 5.6-.3 7.6-6.5 4.2-14.8 2.4-22 3.8-5.5.4-8.5 1.5-10.7 6.8a28 28 0 0 1-18 13.2M-6 25.4c2.2.9 8.8 8 10.5 6.2.5-5.3-10.9-8.1-.5-19.1 5.5-5.4 7.5-2 10.7 2.7 1.8 2.1 4.1 4.4 6.5 5.4 1 .4 1-.6.8-1.2-1.3-4.6-12.6-12.6-9-17.1C14.3.9 17.2.6 19.5-.3c2.8-1 5.6-2.4 8.4-3.3"/><path fill="none" stroke="#ece2d1" stroke-miterlimit="10" stroke-width=".5" d="M517.4 226.8c-5.3 4.6-8 12.2-12.5 17.5-3 2.5-7.4 2.4-10.6 4.6-2.9 1.8-4.4 5-6.7 7.4-3 2.9-6.9 5-9.5 8.4q-2 2.4-4.3 4.3c-2.8 2.2-7.1 2-7.6-1.8-.6-3.3 1.6-8.8.6-11.1-.8-.6-1.6.6-2.2 1.4-4 5.4-3.6 15.6-5.9 19.2-2.1 3.2-6-.1-8.8-.3-5.3-.3 2.8 10.6-4 12.4-2.5.5-5.2-1-7.6-.2-2.6.7-4.3 3.7-4 6.3.3 3 3.2 5.7 2.7 8.9-1.1 7-14.8-1.4-10.4 7.8 2.1 3.9 8.5 11.2 4.3 13.4-1.6.2-4.4-2-6.5-1.1-2.5 1-7.6 5.6-5.4 8.5 1 1.5 3.4 2.9 4.3 4.9 1.1 2.1.5 4.7 0 7-.8 5-1.2 9.7-5 13.3-3 3.3-6 8-11 7-2.3-.5-3.3-2.9-5.3-3.6-2.2-1-5.6.6-7.4-1-1.1-1.6 1-6.5.3-11.4q-.2-2.7-1.7-4.8c-4-4.7-5.2 2.6-8 4.3-4 1.8-7.7-3.3-11.7-2.9-2.8.2-4 3.3-6.4 4.3-3 1.5-7.6-3.2-11.4-4.3-6.4-2.3-15.4-2.6-18.5-9.8-4-9.6 16.3-16 6.4-21.4-2.1-1.4-4.2-4.5-2.1-6.7 1.4-1.5 4.4-1.2 6.6-2.6 3.4-2 3.1-6.3 4.6-9.4 1.3-2.8 4.2-5 5.6-7.7 2-4.5-.7-4.6-4.1-3.2-2.6.9-5.3.9-6.7 2.3-2 2.2-2 6.4-5 7.6-2 .7-3.6-1.1-5.2-2-2.4-1.5-6.2-2.3-4.4-4.9 1.1-1.6 4.1-3.3 2.8-5.6-1.4-2.3-4.6-2.1-6.7-3.5-3.2-2.5-3.8-6.4-8.5-6.2-4 0-8.1-1.2-11.8-.5q-6.4 1.8-12.9 2.6c-3.6.5-5.8 4.4-9.2 6.4q-4.6 2.7-9.7 2c-3.3-.7-7.2-2.4-7-4.4 1-1.7 4.1-1.8 5.9-2.4 5-1.2 8.3-5 11.6-8.5q4.3-4.5 9.1-8.5 2-1.9 4.3-2.8c2.1-.8 4.4 0 6.5.9 5.9 3 11.4 1 16.5-2.6 2.3-1.4 5-2.1 7.2-3.6 2.2-1.3 3-5 5.5-6 3.2-1 7.5-.2 10.1-2.5 2.4-1.7 5.3-2 8-3.3q2.9-1.3 5-3.6c2.5-2.5 5.8-6.7 3.9-10.2-1.9-1.5-4.2.1-6.8.5-2.3.6-4.7.7-7 1.4-7.9 2.6-11.6 16-20.2 13.7q-3-.8-6-1c-3-.3-6 .5-7.8-1-2.7-3-.2-7.7-.2-11.3.5-4.8-1.2-9.8-.6-14.5 1.8-9 9.3-5.8 8-18.7q.1-2.7-.6-5.1c-3.3-5.7-6.5 7.2-8.1 9-.9 1.4-2.4 1.9-3.6.8-2-1.4-3.4-5.6-5.5-6.7a2 2 0 0 0-3 .7c-1.4 2-.2 5.3.8 7.5 2 3.6 7.5 24.2.2 23.5-2-.4-4.3-2.9-6.4-3.3-2.2.2 0 3.8 1 6q1.7 3.7 2.5 7.5c2.5 8 .7 13.4-8.2 11.5-3.3-.8-5.7 1.3-8.6 2.5-2.1.8-4.8-.1-5.8.8-1.5 2 .2 5.3-.6 7.6-2.7 5.7-7.3-2.7-9.5-6-1.4-2-2.6-3.2-3-1.8-1 2.8 2.6 9.4 0 12.6-2 2-6.5 3.5-9.7 4.2-2.7.4-4.8-1.7-6.5-3.6-1.6-1.8-3-3.6-2.8-6.1-.1-2.2 1.4-7.1-1.3-8.1-2.3 0-3.4 3.7-5.3 4-2.4.4-3.4-3.6-5.4-4.4-2-1-3.3 1.5-4.4 2.8-2 2.7-4.8 1.8-8 1.3-2.7-.3-5.4-.3-7.2-1.6-1.5-1-2.3-3-3.8-3.9-2.8-1.2-6.2 3.5-8-1-1.5-2.6-.6-12-4-8-1.8 2.5-3.6 8.5-7.7 5.8-1.5-.9-2.8-2.4-4.6-2.8-2.4-.6-5 1.4-7.4 1-2.6-.3-4.2-3-6.7-2.4-2.9.5-5.2 3-8.1 3.4-3.5.7-5.6-1.8-4.4-5.3 1.6-5.5 8-11.6 7.2-16.7-.3-1.8-1.2-3.6-1-5.4q.2-2 1.3-3.9c1.3-2.3 1.4-5.2 3-7.8q1.6-2.2 3.8-3.7c4-2.2 1.7-5.9 2.5-9.6.8-2.9 3.4-3.3 6.4-3.2 2-.2 7.6.8 5-3-2.7-4-5.2-4.9-10.2-3.1-9.3 2-7.2 6.8-11.4 13.2-2.1 2.7-5.3 2.6-7.2-.2-1.8-2.3-2.5-5.4-4.2-7.4-3-3.1-7.4-5-11.1-7-4.2-2.2-8.8-.8-13.2-.4-3.2-.2-9 1.3-10.4-2.4-.5-2.5 2-6.8 1.3-10.1-.3-2.7-1.7-5.2-2.4-7.6-.6-1.9.5-3.8-.5-5.5-3.8-3.7-12-1.6-16.7-4-5.5-3.7-1-8.9 3-11.6 2.6-2 4.4-5.5 7.6-6.3 5 0 4.6 8.1 7.8 10.5 2 2 5.2 2 7.7.7 4.5-2 6.4-7.7 11.3-7.4 3.3.4 5.5 3.6 8.5 4.9 3 1.2 4.6-3.6 7.4-3.9 2.8-1 6.6 7 7.4 1.6.8-14.8 10.3-6.8 11.8-10.2-.1-2.6-3.7-5.8-1-8q1.7-1 3.8-1.6c2.4-.9 4.7-2.1 7-2 1-.2 6.1 1.8 5.3-.5-1.2-2.1-4.9-3.6-5.8-6.3-1.5-5.4 5.5-10.6 10-11.3 2.4-.5 5.3 1 7.5.4q.4-.3-.5-1.2a13 13 0 0 0-8.8-3.4c-3.3.1-6.3 2.5-9.5 2.2-2.2-.1-5.3-1.9-4.5-4.5.8-2.4 5.8-4.7 7.3-8.3 2.1-4.2-.1-10.3 6-11.7 3-.9 6-1.3 8.8-2.7 3.8-2 8.4-3.3 12.1-5.5 2.7-1.7 3.6-5 5.8-7.2 2-2 4.5-3 6.8-4.6 3.7-3 7.6-5.6 12.5-6.3q2.2-.6 4.6-.8c5-.7 10.7 1.6 15.8.1 2.3-.7 3-2.4 1.3-3.5-2.3-1.5-5.3-1.7-8-2.3-5.4-1-10.8-2.3-16.1-.8-2.8.7-5.9 2.7-8.8 1.7-2.4-.7-4.6-4.1-6.3-3.8-3.1 1-3.5 5.6-4.7 8.3-1.8 5.2-5.3 11-10.8 12.6-4.2.7-7.2-3.2-10-5.5q-1-.9-1.8-.9c-.4.5 0 1 .2 1.5 2.4 4.3 0 6.7-2.9 9.7-3.2 3.2-5.6 6.8-9.3 8.4-2.6 1.4-6.8 1-6.3 3.6.7 1.9 2.7 3.3 3.5 5.2 1.3 2.8.2 5.9-2 7.7-2.9 2.6-9.6 3.5-8.6 8.1.3 1.4 1.3 2.9 1.4 4.3 0 1.5-1.1 2.6-1.4 4-.3 2.2 2.6 4 2.8 6.5.3 2.9-2.6 4.6-4.4 6.4-3.8 3.7-7.3 9.3-13.1 8.6-3.4-1-7.2-6.1-11.7-5-2.5.5-5 2.6-6 2.2s-.6-1.7-.6-2.6q.4-1.7.3-3.5c-.4-2.2-2.2-3.9-2.6-6-.5-2.8 1.1-6.4.5-8.7-.6-2.5-3.2-3.8-4.8-5.7-2.7-2.5-4-8.8-6.3-10.7-1.4-.9-2 1.4-2.2 4.1-.5 4.6 2.5 9.4 3 13.4s-4.3 4-7 3.4c-4.2-.6-8.2-.8-12-2.5q-4.3-1.3-7.5-3.7c-1.6-1.2-2.7-3.2-4.2-4.5-2-1.9-3 0-2.7 2.4.6 4.5 4 8.7 3.2 13.5-.4 3.2-3.4 5-3.8 7.7-.4 3.1 2.3 6.5.2 9.5-3 4.3-8.6 4.8-13.2 6.9-3.8 1.5-7.6 3.8-11.8 3.3-8.2-.9-15.3-12.7-12-20.2q.3-.9-.4-1.3c-.8-.6-3-.9-4.6-2-4.5-3.3-2.3-10-2.7-14.8q.1-1.7 1-3.3c.9-2.2 3.3-4.3 3.5-5.4.2-1-.9-1.2-1.6-1.4-2.4-.4-4.9-1.5-6.5-3.4-1.4-1.4-2.5-2.6-2.8-1-.1 4 3.6 13-3 12.8-2.4-.6-3.9-3-5.4-4.7-1.8-2.2-4.3-3.8-6-5.9q-1.5-1.8-3.2-3.2c-1.8-1.2-4.4-.8-6.4-1.6a2 2 0 0 1-1.2-2.7c1.4-3.1 5.5-4.5 7-7.4 1.1-2 1.3-5-1.1-4.1-1.6.5-3.4 3-5.3 3.5-2 .8-4.4-.2-6.3.9-1.2.8-2 2.3-2.8 3.5-2.3 3.2-6.2 1.8-10 .6"/><path fill="none" stroke="#ece2d1" stroke-miterlimit="10" stroke-width=".5" d="M517.9 380.7c-3.2-.8-5.8.8-8.7 1.7-3.2.9-4.2-2.2-6.2-4-1.5-1.4-3.5-1.8-5.4-2.2-5-1.2-5.2 1.5-5.4 5.5-.1 3.2-2.7 6.2-.1 7.2 1.2.3 2.7.3 3.7 1 2.7 2.1.4 6-.9 8.4-1.6 2.8-3 6-6.2 5.6s-9.4-3.3-10.5 1.8c-.5 4.8 7.5 8.2 2.9 12.7-1.5 1.5-3.5 2.3-5 3.7-2.6 2-3.6 5.4-6.1 7.4-3 2.6-7.1 2.9-10.4 4.8-2.9 1.8-4.6 5.2-8.2 6-6.4 1.4-15.6-.2-18.8-6-1-2.1-.5-4.5.3-6.5 1.5-4.5 3.4-8.8 7.9-10.9a10 10 0 0 1 5-1.4c1.7 0 3.4.7 5.1.6 2.4 0 4.5-2.4 6.8-4 1.7-1.3 4.1-2.6 5-4.6q.4-1-.6-1c-1.7.3-3 1.7-4.6 2.3-3.2 1.8-10.2-2.5-11-5.5-.7-3.3 2.9-5.6 5.6-6.6 3-1 5.9-1.1 7.7-3.3 1.7-2 2.2-5.4.1-7.3-2.2-2.4-7.1-1.3-8.9-3.5-1-1.5-.2-4.3-1-6.5-.7-2-2.4-3.8-2.8-6-.8-4 4.7-6.8 6-9.6 1-2.2-1.7-3.3-1.5-5.7v-.8c.7-4 3.1-7.6 5-11q1-2.6 1.4-5.2c.5-2.4 2-4.7 2-6.8 0-1.8-.9-3.4-.8-5.1 0-2 2-4 1.5-5.8-.8-2.4-3.7-3.3-5-5.2-1.4-2.2 0-5 .8-7.3 1.2-2.5 2.5-6 5.4-6.9q1.5-.3 2.8-1.2 1-1 1.4-2.5t1.4-2.3c1.2-.6 3.4 1.2 4.5.4.9-.6 1-1.6 1.3-3 .5-9.2 6.3-11.4 14.6-6 .7.2 5.4 4.9 5.3 3-2-5.7-11.9-10-7.3-16.7 2.3-3.1 8-2.2 8.6-6.7 1.5-9 7.3-9 14.9-9.7 3.2-.6 6.3-1.7 9.6-2m-1.5 195c-3.3 3-5.7 7.1-9.8 8.8-2.1.8-7.7 2.5-7.5-1.2 1-3.4 5.5-4 8-6q2.8-2.1 5.1-4.7c5.4-5.2-3.3-7.2 3.4-13.8M-7 296.7c2.3-5.8 7.1-9.2 13-6.2.5.2 1.2.6 1.5 0 .2-1.5-1.5-5.2.6-6.6 1.9-1.4 5.5.5 6.8-1.7.6-1.8 0-4 .3-5.8.4-3.3 2.8-6.6 6.1-6.7 1.9-.2 3.8.6 5.6.6 2.3 0 4.6-1.7 7-.8 2.2.7 4.4 4 6.5 6 5 4.3 6-4.1 8.4-7.3 1.7-2.5 5.3-1.8 7.2-4 1.2-1.4 1-4.7 1.8-6q.6-.9 1.8-1c4.1.4 4.2-5 7.4-6.2 2.1-.8 4.7 1.6 7.5 2.2 4 .7 8.9-1 11.5-4.1a10 10 0 0 0 1.8-3.7c1-2.8-.5-6.2 1.6-7.5 2.6-.2 4.5 3.3 7 3.8 3 .7 5.5-2.6 9-3.3 4.5-1.3 5.6 5 8 5.6 3 .6 6.8-5.7 11.1-5.7 2.5-.1 4.7 1.6 7 2.6 3.6 1.3 7 3.3 5.7 7.7-.8 5-6.8 3.8-10 5.2-1.8.8-2.1 3-2.8 4.6-.9 2.2-2.4 4-3 6.4q-.3 2.3-1.5 4.2-1.7 1.6-3.8 2.8c-2.4 1.4-4.2 3.9-6.7 3.5-2.2-.4-5-2.1-5.8 1q-.5 1.7-1.7 2.3c-1.7.5-4.6-1.9-6.6-.8-4.1 2.1-7.6 5.5-11.4 8-2.4 1.4-5.7.9-8.5 1-4.3.2-6 5-7.7 8.3-1 2.1-.8 4.8-2.2 7.2-3.4 6.6-10.4 10-16.3 13.8-1.2 2.8 6.9 2.2 8.5 2.2 3.6-.4 6 1.5 7.2 4.7 1.4 3.5 3.7 7.4 1 10-2.2 1.9-5.4 2.4-7.6 4.4-9.1 7.6 6.7 11.2.7 12.9-22 2.6-3.7 7.8-16.1 19.1-3.6 3.8-6.3 9.4-10.8 11.2-3.4 2.1-10.8-1.3-12.3 3-.3 2-.3 5.6 1.5 6.9 1.3.6 2.9 0 4.3-.5 6.1-2 12.7-2.8 17.3-7.4 1.9-1.8 3.7-2.8 5.2 0 .6 1.1 2.1 3 3.1 1.2 1.3-2.5.5-5.8 1.3-8.4 1.6-5 6.1-8.6 7.5-13.8 2.7-7.3 7.6-11.6 15.2-10.7 1.1-.2 2-.3 2-1.2-2-4.7-9.5-5.3-5.2-12 2.2-3.7 6.2-7 5.4-11.7-.6-3.5-.6-7-1.1-10.7s-1.5-7 .3-10c3.6-5.4 10.7-6.2 16.4-8.7 4.9-1.8 11.6-3 14.4 2.6q1 2 2.3 3.7c2.8 1.8 4-6.4 6.4-8 5.3-3.4 9.7.5 11.1-8.3 2.2-5.3 5.2 7.4 10.4-3.3 2.5-4.6 5-8.8 6.5-13.8.7-2.3 1.6-5.8 4.8-4.8 1.3.3 2.8 1 4.2.9 3.5 0 6-5 9.3-8.3 3.7-4 7.8-5.3 8.2 1.7.4 5 .2 10.1.5 15.2q.8 6.1-1.2 11.9c-.4 1.6.1 4 2 3.9 2-.1 3.5-3 4.9-4.6 1-1.5 2.4-2.8 3-4.5 1-3.7-1.3-8.9-.3-13.1.6-2.4.6-7 3.6-7.3 1.3.4 2.4 1.7 3.7 2.3 2.2 1 4.8-1 7.4-.4 7.3 1 4.5 16.4 12 13.8 1.9-.9 3.6-3 5.7-3.4 5-1.2 6.4 7.2 9.2 8.6 1.9.8 3.8-1 5.2-2.2 5-4.9 8-2.4 13 1.6 10.6 7.2-9.9 6-13 9l-4.7 3.3c-2.3 1.5-5 2.6-5.4 4-.2 2 1.6 3.3 2.4 5 2.5 3.6.8 8-2.3 10.6a25 25 0 0 1-7.8 5.5c-3 1.1-6 1.9-8.5 4-4.6 5.3-11.2 4.7-17.6 5.7-1.4.3-4.8 1.8-2.2 2.4 1.5.3 3.5.1 5 .7 4.8.6 8.5 17 12.1 13.2 1.7-2.4 2.6-5.7 4.7-7.8 2.6-3.2 6.7-4.2 10.4-5.4 1.8-.6 4-1.8 5.6-.4 1.9 1.5 4 8 6.4 3.3q2.4-7.2 6.1-14c2.8-4.7 3.7-12.7 8.8-15.3 1.6-.4 3 .7 3.2 2.6.8 4.3-2.6 11.2.2 15 1.7 1.9 6.7 3.7 7.5.2 0-7.3.7-6 5.1-11 1.6-2.3.6-6.8 3.7-7.8 5.3-.7 6.3 7.2 10.3 9.3 2.2 1 4.5-1 5.6-3.6 1-3.2 2.5-8.3 6.8-5.9 1.8 1.5 2.3 4.2 4.6 5 2.9 1 7.9 3.2 9-.3.8-3.2-.2-8.7 3-10.5 1.6-.6 3.3 2.9 5.5 3.2 2.8.6 5.1-3.3 7.8-2.6 1.1.6.5 3.6 1.5 5.2 1 1.4 2.8 2 4 3 3.3 3.5-4.9 6.8-4 11.3.4 6-4.5 12.5-10.9 12.6-3 .2-6 .5-8.9-.2-1.9-.4-3.8-.8-5.7 0-1.5.5-2.9 1.8-4.5 2.1-2.5.7-5.5-.8-8.5-.3-2.3.3-5 2.1-3.1 4.7 1.5 2.8 9 6.4 6.7 10.4-1 1-2.8 1.3-3.8 2.4-.8.7-1 1.8-1.5 2.8-.3 4-17.2 2.2-11.8 7.5 3 2.3 13 8.4 3.4 9.4-4.7.2-10.9-1.2-12.4 4.7-1.2 3.4-5.1 5.9-8.6 4.2-2.3-.8-4.1-3.8-6.7-3.3-2.2 1-3.5 9.8-1.9 12 .8 1.6 2.4 3 2.8 4.6.6 7.2-12.9 2.7-17 3.2-7 1.3 17.5 8.7-1.5 13-5 1-8.2 4.9-12 8-1.4 1-6 5-1.7 4.4 2.7-.2 7.1-5.1 9-4.1-.5 2.4-3.4 4.5-4.9 6.5-2.6 2.7-3.8 6.1-6 8.6-1.6 2.3-5.7 4.4-4.7 7.5q.7 1.1 2.5.3c3.6-2.1 5.8-6.3 8.7-9.2 3.4-3.8 8-6 11.8-9.3 3.8-3 6.1-7.8 10.7-9.7 5.6-1.9 11.9.5 14.3-6.3 2-4.4 3-9.5 6.2-13.2 2.7-2.8 7.1-6 11-6.1 2.4 1-3.8 6.3-4.3 8-4.5 7.3-4 17-8.1 24.3-.7 1.5-2.7 5 .1 4.7 2.2-.6 3.6-3 4.6-5 2-3.8 4.6-7 5.7-11.1 1.6-4 1-12.3 6.2-12.9 4.5 2 6.5 3 10.3-1.8 1.8-2.2 2.4-6.3 6-6.1 10 2 4.8-9 7.8-14.7.7-2 3.2-3.2 4.6-1.2 1.7 1.8 2 6 3.7 8 2.8 3.2 5-2 6-4.1 2.3-4.3 6.6-7.3 9.7-11.2 2.4-2.6 4.6-7.6 7.7-4.7 2.3 3.8 7.1 17 13 13.2 2.2-1.2 3.5-4.3 6-5 5 0 5.6 11 3.8 14.5-1 2.8-6.2 3.4-6.2 6.5.4 1.4 3.3 2.6 5 4.2 2 2.1 4.5 4.7 7.3 2 3.9-4.2 9-4.7 14.7-4.4 3.5 0 7.2-.4 9.8 1.6 2.8 1.9 4.3 7 1 9.1-2.2 1.3-5.4 0-8 .6-4.1.7-3.8 5.5-6 8-4.7 4-10.8.8-16.5 6.3-3.6 2.3-3.4 4-2 7.4.6 2.3-.7 5-1.4 7.5-.9 3.2-3.3 5.2-6 7.5-1.5 1.5-8 6.7-2.4 6.4 3.2-.5 6.5-2.3 9.7-1.9 2.9 0 7 3.1 3.2 5.6a30 30 0 0 1-9.3 3.9c-3.7 1-7.4 1.1-8.9 3.4-1.6 2.3-.4 6 2.6 6.2 2.4.3 5-.5 7.5-.9 6.1-.7 16-1.4 14.5 6.3-2.3 5.2-5.7 10.4 1.2 13.8 1.7 1 4.4 1.3 4.5 3.6-.2 2.7-2.6 5.6-1 8.2 2.1 3.2 5.7 9-2.1 8.6-4.8-1.2-9 .4-13.7 1.5-5.2.2-10.7 2.9-15.6 3-3-.1-6.4-3.3-9.3-1.6-4.4 3.5.5 10.1 4.4 12M-6.2 218.6c4.3.2 8.9-1 13 1 5.5 2.7 9.9 8 13.8 12.9q1.3 1.6 3 3l3.4 1.9c4.5 3 7.2 8 12 11.2 2.5 1.6 7.3 5 2.5 7-3 1.3-6.3-.3-9.6-.8q-2.7-.5-5.6-.6c-2.1-.3-4.1-1-5.9-.5-6 2.5-6 2.5-11.3-1.9-.6-.4-1.3-1-2-.9-2.8 1 2 8 1.5 10.4 0 4.3-3.5 9.8-7.5 10.6-4.3.3-6.4-4.5-8.4-7.5"/><path fill="none" stroke="#ece2d1" stroke-miterlimit="10" stroke-width=".5" d="M-5 145c3.1-1.9 4.5-1.5 6.3 1.6.7 1.2 1.5 2.2 2 .3.8-3.6 2.7-7.1 3-10.5.1-2.9.1-9 4.6-6.9 3.4 2 5.9 5.4 8.3 8.4.8.8 1.7 2.2 2.9 2 1.3-.4 2.1-3.2 3.8-3.7 2.2-.6 4 1.9 6.2 2 1.5 0 3.1-.7 4.6-.9q1-.1 1.5.5c.7 1-.4 3.4-.2 4.9.4 2 2.8 2.7 3.9 4.3a13 13 0 0 1 1.9 6.2c1.1 6-4.6 5.9-6.4 10.2-.6 1.5-.4 3.2.5 3.8 1.8 1 3.9-.7 5.8-.6 2.5-.2 5.2 2.5 7.2.9.8-.8 1-2.2 1.2-3.3q.4-4.6 2.6-8.7c1.3-2.5 4.3-4.4 7-3.5 2.5.6 4.8 3.7 6.8 3.6 1.3 0 2.2-1.2 3-2.1q2.6-3.6 6.1-6.3 3.7-2.6 6.6-6c.8-.9 1.9-2.5 3-2.1.5.7-.2 2.5-.5 3.5-2.6 6-1.9 7.5 1 13.1.7 1.8 1.4 3.7 3.2 4.6 2.5 1.8 13 1 7.3 5.5-3 2.2-7 3.2-10.6 3-2.2 0-4.4-.2-6.4.8q-2.3 1-4.7 2.3c-2.5 1.4-6 1.4-6.5 4.2 1.2 5.2 12.3-.8 15.7.2 1.8.1 3.8 1.2 3.9 3.2.1 2.8-3.2 6.8 1.3 7.7q2.3.6 4.6 0c2.3-.6 4.2-2.7 6.5-2.3 2.7.3 5.3 3.1 6.3 5.8 1.2 2.7 0 8 4 8 2.2 0 4.3-2.2 6.6-2.4 7.3-.1 5.2 8.7 14.2 6.3 3.9-.3 8 1.3 11.6 3 3.6 2 4 6.4 3.4 10 0 9.1-9.7.8-13.8 3.1a25 25 0 0 1-6.9 3.2c-2 .8-3.4 3.3-5.5 4.1-2.5 1.1-5.2.2-7.6-1-2.3-1-4.4-2.3-6.8-3-2.5-.6-5.3-1-5.7-3q-.1-1 .2-2c2-4.4 4.5-8.4-2.1-9.8-11-3.1-8.3 5.7-17 1q-1.5-.8-3-.4c-1.5.9-.7 3.5.5 5.7 1.4 2.6 4.2 4.4 5.7 7 2 4.4-7.3 4.8-9.8 3.4-3.6-1.6-8.4-8-11-7.5-4.6 2.2 4.6 12.6-3 14.8-2.3.7-5.5 0-7 2-1.7 1.7-2.9 5-5.7 5-3.7-.7-3.5-6-4.3-9-.7-3.7-2.6-7-4-10.5-.5-.8-1.8-4.2-2.9-3-1.1 2.2 0 8.7-.8 11.6-1.9 6.8-7.6 2.3-11.1-.3q-5.9-3.9-11.8-8.2c-6-5.4-12.7-5.9-20.2-3.3M-7.3 97c3.5 2.4.5 7.5 6.5 6.3 4.7-1.2 10.7-5.3 14.9-.9 3 4.5-9 8.6-12 9-3.2.5-6.6.1-9.8.4M69.4-.5c.4 1.9.4 4.1 1.8 5.6C72.7 6.6 75.5 6.4 77 8c2 1 4.9 11.3 7.3 6.6.6-1.8 0-4.2 1-5.8s3.5-1.4 4.7-2.6c.8-.6 1.2-1.7.7-2.5-.6-1.2-2-1-3.2-1-7.4 1.4-7.3-3-12.3-6.4M-5.2 26.8c1.8 2.6 3 5.7 4.7 8.3 1.2 1.9 3 3.5 4.4 5.2 6.6 7.9 7.9-3.5 8.7-8.4.5-3.6-1.7-8.2 2.6-9.4 5.7-1.6 5.4 7.5 15.1 7 2.6-.1 5.2-1.4 7.3-3q.9-.5 1-1.3c.1-1.1-1.2-1.9-2-2.6-2-1.5-4.2-2.9-6.7-3.1-4.6-.3-5.2-2.4-7.2-6-1.5-2.3-4-3.7-5.5-6C13.8 1 22.8 4 26 2.8c3.2-.6 6-3 8.9-3.7a14 14 0 0 1 7.8 1c1.6.7 3 1.7 4.6 1.2 2-.7 4-3 5.7-4.5m169.7-.5q-1.8 3.4-4.3 6.2c-2.5 2.6-6.4 3.3-5.6 7 1.7 5.8 5 13.4 1.7 19.1-.9 1.2-2.4 1.9-3.5 2.8-2.5 2.2.8 5.3.6 8.4 0 2.6-2 5-3.4 7.6-1.3 2.4-3.4 5.6-6.5 5-1.8-.4-3.3-1.8-4.9-2.9-2.7-2-6.1-3.5-8.5-4.8a24 24 0 0 1-9-10.5c-1.4-2.4-7.7-13.3-10.3-9.1-1 3.5 1.9 6.6 3.4 9.6 1.4 2.4 2 5.2 3.5 7.4 3 4.3 8.3 6.6 11.8 10.4 3.7 4 1 5.4-2.3 8-2.2 1.7-3.3 5.1-5.8 6.5-5 2.6-10.3-.6-15.5-1-1-.1-3.3-.1-3.3.7-.1.9 1.4 2.3 3 3.4 3.8 2.7 9 6.4 9.8 10.9 0 4-5.4 2-7.8 3.4-1.4.6-2.3 1.9-3.4 3-1.7 1.7-4.4 2.8-4 4.3.3 1.5 1.9 2.4 3 3.3 1.9 1.2 4.8 3.6 1.3 4.6-1.4.6-6.5 1-4.4 3.5 1.6 1.8 7.2 2.2 7.4 5.7 0 1.7-2.2 3.8-4.1 5.5q-2.6 2-6 2.2c-3 .3-6.2 1.3-8.8-.3-2.3-1.2-3.2-3.9-5-5.5-1.4-1.2-3.3-1.3-4.7-2.3-3-2.8 3.2-11.8 2-15-.4-1.2-2.2-1.4-3.5-1.5-4.7 0-6.8-2.5-8.8-6.6-5.4-8 .3-8.4-2.2-14.4-1.3-2.2-2.8-4.4-3.4-7-1.9-7.3-3.4-9.1-4.3-1-.3 3.3-1.4 6.5-1.5 9.7 0 2.6 1.1 4.9.9 7.7q-.3 3.4-2.2 6.3c-4.5 5.7 1.8 7 4.4 11.8 2.9 6.7-9.7 3.8-12.1 1.4q-2.9-2.9-6.8-3.2c-3.3-.4-5-3.6-6.4-7-.8-1.7-.9-4-2-5.5-2.3-2.3-6.4.5-6.6 3.5s-2 6.2-1.3 8.7c.3 1.2 1 2 1.5 3.2 1 1.8 1.7 4.3.1 6-1.3 1.5-3.3 2.5-3.4 4.5-.2 1.6.3 3.2.4 4.8l.1 5c.2 2.5 1.4 5 .3 7-2.6 3.5-8 2.4-11.9 3.5-4.2 1-8.4 3.7-12.7 2-2-.7-3.8-2.8-2.8-4.9s4.9-3.5 5.2-5.2c.2-1.3-1.2-2.2-2-3q-.6-.7-.2-1.3c1.7-1.3 6.8-.8 5-4.2q-.7-1.5-1.9-2.8c-1.9-2.6-3-5.7-5.2-5.4-3 .5-5 6.5-8.3 3.8q-1-1.5-1.2-3.8c-.2-2.2-.7-4.5-.2-6.7.8-3.2 4.8-5 7.3-7.3 2.4-2.4 6.6-2.7 8.8-5q1.4-1.6 1.6-3.8c-.1-2.2-2.7-1.6-5.5-1.4-3.3.2-6.1 2-9 3.2-2.2.7-4.1-.3-5.7-1.6-2.5-2-4.5-4.5-3-7.4s7.5-6.4 4.1-10c-4-3-11.2 10.5-11 13.6-.4 3.5 1 6.9 1.2 10.3 0 1.7-.4 4.8-2.4 4-1.4-.8-2.7-3.8-4-5.3q-4.2-5.3-3-12.4c.7-2.9 1.1-5.7 0-8.5-1.4-3 .1-6.4-1.5-9.2a3.6 3.6 0 0 0-6-.5c-1.6 1.9-2.1 5.1-3.5 7.6-3.7 6.3-5.5-2.2-9-1-2.7 1.5-2.3 6.2-4.1 8.1-1.5 1.9-3.8.3-5.1-1"/><path fill="none" stroke="#ece2d1" stroke-miterlimit="10" stroke-width=".5" d="M517.3 216c-1.5 10.8-5.3 2.7-11.6 14.5-2 2.8-7.6-1.5-8.2 3-.3 8.5-4 7.2-9.7 11-2 2-2 5.2-3.4 7.6-7.9 9.7-15.5-3.9-14-13 .4-7.6-4.4-1.3-5.5 1.9-1 2.1-1 4.6-1.8 6.7-.9 2.4-3.4 3.9-4.3 6.4-1.1 3.5.2 9.5-3.6 12.2-4.5 3-12.2-3.8-17.8-1.9-2.6 1.7-.2 5.6-1.5 8.5a27 27 0 0 1-9.7 12.8c-1.8 1.3-4 2.3-4.5 4.1s0 4-.8 5.7c-.9 2.3-3.2 3.9-3.6 6.4-.8 4.2 5 9.1 3 13.5-3 3.7-7 6.5-10.7 9.7-1.4 1.2-4.5 2.5-3.1 4.8 1.7 2.4 5.5 3.4 6.9 6.3 1.2 2.6-1.2 5.9-2.5 9.3-.5 3-4.5 10.1-7.1 5.5-.6-2.2.1-4.6-.5-6.7-.7-2.9-3.1-5.4-5-7.8-4.6-6.6-10-10.8-13.8-1.2-3.1 5.1-10.6 3.8-15.9 3.5-2.3.4-2.2 3.7-4 4.7s-4.8-1.3-8-2c-9-1.2-25.3-4.5-14.4-16.2 2.8-2.8 6.6-3.9 7.6-7.6.6-5.8 5.1-10 6.7-15.4.9-5.6 1.7-11.6 6-15.8 1.6-3.2 18.7-1.7 10.3-6.2-3.7-2.3-5.4-6.5-10-5.6-7-.4-9.6 7.7-16.1 1.6-4.6-1.5-10.2-1.5-14.6-3.7-1.6-1-2-4.5-4-5.6-3.9-1.6-10.8 1-5.6-5.7a20 20 0 0 1 5.4-4.5c3.3-1.5 6.3-2.3 6.9-6 .4-1.1.9-2.5 2.1-2.9 3.2-1.1 6.7 2.8 9.5.2 2.2-1.8 4.1-4.2 7-5 3.3-.8 5.6-2.5 8-5.4 7.7-6 .6-19.6 15-22.6 7.5-1.5 12.1 8.1 19.7 3.3 4.3-2.3 9.2-.4 14-.8 3-.2 5.8-1.7 8.8-2 5.3.4 7.9 3.8 13.3.4 4-1.9 8.5-3.1 11-7 2.7-4 5.4-10.8 4.8-15.4-2-2.3-7.3.4-7.2 3.3.9 6-1.4 8-7 9.7-3.4 1.2-7 3.4-10.6 2.6-2.8-.4-5.2-2.8-8-2.7-2.3.3-3.9 2.3-5.9 3.1-2.4 1.2-5.6-.4-8.7 0-9.2 2.3-12-2-16.3-9.3-3.9-5.5.8-16.3-3.3-20-2.4 2.2-1.3 9.4-1.9 12.8-.4 6.4 1.3 13.4-3.8 16.3-6 4.2-16.4-6.3-16.5 5.3-.8 14.7-13.6-.2-17.8 11.4-3.6 7.6-5.9 9.7-14.6 7.9-2.2-.4-6.1 1.2-6.4-2-.3-4.9 2.3-10.1 1.1-14.9-1.8-4.9-2.1-7.3 3.3-9.4 5.6-3 0-6 7.2-10.7 2.2-1.5-5-3.7-5-6.9-.5-3.1 1.8-7.1 2.1-10.8.4-4.6-1.8-7.9-1.5-13 .4-5.5 4.5-10.1 4.7-15.4-.8-2.5-3.5 2-5.3.8s-2.5-3.8-3.8-5.4c-6.3-5-3.2 22.6-4.1 25.8-1.9 6.7-7 30.8-11.8 10.8-1.8-5.8-5.7-10.5-8.7-15.8-2-4-4.6-5.4-3.4.5 1.3 6.2 6 12.3 3.3 18.6-1.9 4.3-8.7.2-12.4-.4-1.5 0-.9 1.6-.3 2.5 3.5 5.1 10 7.2 13.4 12.2 3.2 4.5 4.5 10.9-3.8 11.1-3.7.1-11.6-3.3-12.5-1.7-1 1.8 3.7 3 4.9 5 1.8 2.4 1.6 5.6 2.7 8 .8 2.1 2.6 3.7 3.7 5.7 2 3.4 2.7 8.4.9 10.6-2 2.2-5.4.5-8 .6-3.6.3-6.6 2-10 .8-3.8-1.4-5.4 4.5-9 3.1-5.2-1.8-7.7-23.6-10-7.3-.8 6.4 2.5 13.4-.6 19-2.4 2.8-8.4 1.9-9.5-1.7-1-2.6.6-6.1-.2-9-.5-2.9-3.7-3-5.6-1.3-6.5 6.4-5.8-4.6-11.6-2.7-3 1.5-6.8 6.5-10.9 3.8-2.1-1.3-4-3.4-6.5-4-2.6-1-6.1-.5-7.9-1.9-3-2.5 0-7.8-4.3-9.7-3.2-2.4-5.8-.6-6 3.8-.2 3.4-2.8 11.6-5.5 4.5-3.1-7.7-6.1-2.5-10 .7-3.2 1.2-2.8-4.2-4.2-5.9-3.6-4-10.7 6.8-14 5.3 1-4.4 5.3-7.8 6.9-12 3-9.7-1.8-20.4 11.8-23.4 6.2-3-.7-7.5-1.7-10.9 0-2.7 3.9-1.8 5.7-1.8 4.1.4 8.4-1 12.7-1 3.6-.2 7.8.7 11.3-.5 2.5-1 2.8-5.6 1.5-7.2-3.3-2-6.5 3.9-13 2-8.5-1.7-7.7-3.4-4.3-10.7.8-5.3-9.8 0-11.4 1.3-1.2 1-2.2 2.3-3.7 2.5-2 .1-3.6-1.5-5.5-1.2-2.8.9-7.2 2.7-7.5 6.3-.2 2.7.7 5.9-.2 8.5-.8 2.9-4.3 3.6-5.8 1.2-1.2-1.9-.6-5.4-1.9-7-1.3-2-4.3-1.8-6-3.4-1.3-1.2-1.7-3.7-3-4.9q-3.3-2-5.3-5.5c-2.4-1.2-8.7 4-12.8 4-7.9 1.8-5.6-6.7-5.7-12.1 0-2.5 1.4-3.4 1.6-6-.3-4.6 1-9 4.6-12.1 7.2-7.8 8-1.9 14.3 2l6.5 3.3q1.4.9 2-.8c.4-2.2-.2-8.6 3.7-7 3.7 2.7 4.8 8.6 9.2 10.5 6.4 0 .1-10.4-.5-13.6-1-3.4.4-8.3 4.8-6.8 5.1.9 12.8 10.6 17.1 9.7 1.6-3.6-5.5-10.1-7.8-13.3-5.1-4.6-4.4-6.5 3.2-7.4 2.8-.2 5.4 1.7 8.2 1.3 3-.4 7.8-1.4 6.3-4.2-2-2.8-6.2-4.4-6.9-8.2-.6-3.2 0-8.3 3.7-8.5 9.8 2.2 15.8 11.7 23.5 17.4 4 2 1.7-3.8.7-5.5-2-4-3.1-6.5-.8-9 1.5-1.6 4.3-2.5 5.8-4 1.9-3.5-8.1-.5-9.7-.6-4.3.6-6.5-3.4-9.5-5.6-6.6-5.3-20.8.2-19.2-3.7 1.1-2 4.2-5.5 4.3-8.6.3-7.8 2.7-7.3 10-9.1 3.5-1 6.3-3.5 8.8-3.1 3.3.8 6.6 3.4 9.8.7 5-3.8-4.1-10.6 6-12.3 2.6-.5 6.2 1.2 8.5.6 1.4-1 .6-3.4 1.9-4.7 2.4-2 5.5-5.2 8.7-6 6.4-.8 12 4.8 15.8 6.8 3 1.6 9.7 3 12.8 4.4s11.3 5.6 12.5 4.3c2-2.3-13.7-9.8.7-21 11.4-8.8 12.5-16.9 29.3-11.7 2.4.3 6.5-1.7 3.5-3.7-13-2.4-13.4-14.5-3.9-22.8C318-1.4 325-.1 331.5-1m187.8 363c-2.7-3.5-6.2-3.7-7.8.5q-.7 2.3-1 4.8c-.8 4.7-9.4 4.4-12.4 2.5-4.5-3.3-5.7-9.5-5.8-14.8.5-6.1-.4-7.6-4.6-2.3a28 28 0 0 0-4.2 10c-1.4 5-2.7 10.3-2.4 15.5.3 2 1.6 3.7 2.2 5.6 1.2 3.7-2.1 7-4.8 9.5a16 16 0 0 0-5.1 6.1c-.9 2-1.2 4.2-2 6l-.2.5c-.1.2-.5.6-.9.4q-1-.8-2-2c-1.7-1.8-3.9-3.3-4.6-5.5-1-3.6.8-7.8-2-10.9l-3.4-4c-1.5-2.1-1.7-4.5-2.8-7-.7-2-2.1-3.9-2.3-6-.4-3.4 3.1-6.8 5-10 1.7-2.5 0-5-.3-7.6-.3-2.7 1.6-5.7 2.6-8.4 1.9-5.6 4.2-10.2 9.4-13.4 3.5-2.4-1.6-3.8-2-6.3-.4-2 1.9-4.4 1.7-6.4-.2-1.9-2-3-3-4.5-2.3-2.4-1.6-6.6 1.2-8.3 1.5-.9 3.4-.9 5-1.5 3-1 3.7-5.5 4.6-8.6 1.4-5.7 3-12 9.7-7.6 2.5 1.6 4 4.7 4.8 7.4q1.1 4.4 5.3 5.3c2 .3 5.6 1.6 7-.3.5-1 .1-2.8-.2-4.7-.4-2.2-.5-4.6-1.6-6.6-1.6-3-6.3-5.1-8.6-8.1-5.8-7 1.3-8 7.1-7.4 5.7.2 1.3-3.6 0-6-2.2-3.1-.8-6.1 2.7-6.4l4.4-.5c2.5-.5 5-2.4 7-1.8 1.3.5 2.1 1.8 2.9 3M-7 382.3c7.6-5.5 26.2-3 22.1 8-2.2 3.7-4.7 7.4-4.9 12-.4 3.8-3.7 6.3-6 9.2A33 33 0 0 0 0 425.7c1 5.5 4 2 5.4-1.3 1.7-3.7 3.1-7.6 6.1-10.5 2-2.1 5.2-3.2 6.3-5.2 1.1-1.9.6-4 .8-6.1.7-6.5 6.1-10.5 12.4-10.6a28 28 0 0 0 12.4-7.5c.6-.7 2.2-2.8 2.7-2.5 3.2 2.3-3.9 14.6 4 15.3 2.4.2 8 1 8.8-.5.6-1-.4-3.6-.6-5-5-24.8 6.1-13 8.6-33 .9-9.3 7.2-7 13.8-4.2 2.7 1.1 6.6 4 9.3 3.2 3-1.4.8-5.5-1.6-6.6-5.3-2.3-12.3-6.8-12.6-13 .1-2.4 2-4.5 4.4-4.8 2-.6 7.2 1 7.6-1.8-.5-2.8-4-4.8-4.7-7.6-1.2-2.7.4-5.5 0-7.9-1-3.2-3-6.1-.2-9.2 5.3-5.2 18.5-17.7 22.6-5.2 1.4 4 0 8.4 1.8 12 2.8 4.3 8.8-7.6 9.4-10 1-3.7 3.3-8.4 8-7.2 3.1.6 6.5 3.5 9 3 4.7-1.4 5.8-7.8 8.2-11.5 2.4-4.3 6-8 8.5-12.5 2-3.4 5.7-5 8.6-7.8 11.8-14 9.7 9.9 5.8 15.4-1.2 1.8-3.9 3.3-4.3 5.6.4 2 3.6 2.1 5 3.4 2.3 1.5 3.2 4.9 5.5 5.5 6.5.9 11-8.8 15.3-12.8 3.3-4.1 4.4-9.5 7.9-13.4 5.7-7 2.5 13.4 6.9 13.6 3.8 1.7 7.9-1.8 11.6-1.3 1.6.2 2.9 1.5 3 2.8 0 4.4-7.2 3.8-8.7 7.7-2.3 5.5 7.7 8.4-1.6 13.3-3.4 1.9-6.5-1.4-9.8-1.2-2.2.3-4 3.6-4.2 6.3-.3 2.3 1.1 4.5 1 6.7-1.6 6.4-16.4-1.6-21.7 1-8 1.7 1 4.4.8 8.5.1 2.5-2.4 5-2.7 7.2-.1 3.6 3.7 6.8 6.8 8.1 5.6 1.4 3.3-7.3 6-9.7 3-3 4.5 1 5.1 3.6.8 2.8 4.3 4 5 7 .7 2.9-2.4 11.1 3.6 8a22 22 0 0 0 7.5-6.3c1.4-2.2 1.8-4.9 3.8-6.6 3.6-2.7 11.8-7.4 11.1 0-.1 2.5 1 6.9 4.3 5.4 2.4-1.5 4.5-4.5 6.4-6.7 2.2-4.1 2.9-9.4 5.3-13.7.7-1.5 1.6-3.5 3-4.2 4-.2 2 9.3 9.7 9.3 2.6.2 5 1.3 7.3 2 5.2 1 2-6.2 2.1-9 0-3.3 2-6 4.2-8.3 4.3-4.2 6.1 4.4 10.2 4.6 2.4.3 5-1.4 7.3-1.5 4.5 0 1.3 4.2-.9 5.4-3.9 3.4-10.4 3.9-12.8 8.7-1 4.3 6.4 8.4 1.8 12.5-7 7.9-19.9 4.7-17.7 10.8.5 1.9 2.1 3.8 2.4 5.7 0 4.1-7.4 7.3-11.4 6.6-4-.9-9.4-4-9.5 2.7.5 4.6.9 8.8-1.5 13.2-1 2.7-2.1 5.4-4.3 5.6-2.3.2-4.3-1.4-6.4-2.3-2.1-1-6.6-2.2-8.3-1-1.8 1.8 1.4 6.1 2.5 8 1.4 2.2 4 4 3.9 5.7-.2 1.6-2.1 2.5-3.3 3.5-10.5 10.3-14.8 12.3-24.7-.1-4.5-4.6-3.5 4-5.5 6-1.7 3.6-7.8 4.7-8.7 8.7 1.9 2.8 8.7-1.2 11.7-1 3.8-.1 17.5 5 13.3 10.9-3.7 4.1-7.6 4.7-7.2 11.4 0 3.7-4.1 4.3-6.2 7-2.5 4.7-4.8 9.6-9.7 12.6q-4 3-9.2 4c-2 .6-8 1-3.7 3.2 1.7 1.1 3.6 2.3 4 4.5.7 2.2-1.1 9.6 3.3 7.1 3-2.7 6.8-5.4 10.2-7.7 5-4 7.4-11.3 12.8-15.1 5.3-3 6.7-9 10.8-13.2 5-3.9 8.5-10.4 14.1-13 4.7-1.6 9.5-3.7 12.3-8 1.9-2.6 3.1-6.2 5.6-7.3 3.1-1.2 8.8 1.2 10 3.7 1.6 5-12.6 15.4-14.6 20.9q-.7 1.3-.9 2.5c.3 2.7 4.4-3 5.5-3.7 4.3-4 10.6-9.7 14.5-7.7 2 1 3 3.7 4.5 5q1.3 1.1 2.5 0c2.6-2.3 1.3-6.5 1.3-9.6.5-6 3-11.3 8.8-9.4 1.8.2 2.2-1.4 2.2-2.8-.8-14 4.7-11.1 14.4-16.3 3.1-1.5 5.2-4.5 8.2-6 5-2.7 9-6.8 14-9.4 3.8-2.2 3.6-7 6.5-10.4 3.4-5 11-2.6 13.3 2 1 1.8.8 4.4 2.5 5.7 3.6 2.1 8.8-2.8 12.2.3.8 3.5-6.6 4.6-5.2 8.5.8 2.2 3.4 3.4 4.8 5.1 2 2.2 2.7 5.4 3.6 8 2.8 5.9-4 9-8.1 11.6-3.6 2.2-2.4 5.7-1.3 9 .5 2 .3 4 .3 6-.1 3.7.4 9.1-4 10.4-1.8.4-4.1-.9-6-.5-1.3.1-2.2 1.4-2.3 2.8-.3 2.1 1 4.2 1 6.1.1 2-.9 3.8-.8 5.8q.1 2.5.6 5c.4 3.2-.8 6.4.5 9.2 2.4 4.9 12.6 3.3 19.2.1 3.3-1.2 7.3-5.2 10.8-3.2q1.4 1.4-.1 4c-2 3.3-6.6 3.5-9.1 6-1 3.8 6 5.5 4.7 12-1 4.3-6.3 11.4-11.2 9.3-3.7-1.8-5.9-6.5-9.7-7.5-4-1.8-7.3 2.5-11 1.8-1.7-.6-3.7-3-6-3.8-2.8-1-7.1 1-7 4.3.2 2 2 4.2 2.6 6.6l.8 4c3.8 11.3-6 9 .4 16.8"/><path fill="none" stroke="#ece2d1" stroke-miterlimit="10" stroke-width=".5" d="M-7 301.6c2.3 3 3.7 4.2 4.5-.6.7-4.5 3.3-10.5 8.7-6.9 2.8 1.7 4.6 5 7.3 6 2.4 1.1 4.5-.7 4.6-3.2.1-2.6-1.9-4.6-3.6-6.5-2.1-2.6-1-4 2-3 2.3.6 9.3 4.4 9.8.1 0-1.5-2.6-3.6-3.9-5.2-2.8-3.2-4.7-9 .6-9.8q2.4 0 4.8.9c2.7.8 5.3.8 7.5 2.1 2.4 1.5 4.4 3.8 6.4 5.8 1.4 1.4 3.2 2.8 5.2 2a6 6 0 0 0 3.2-3.1c.9-1.9-.2-3.4.2-5.6a8 8 0 0 1 2.5-4.9c2-1.9 4.3.4 6.6 1 3.8.6 3.5-4.8 5.7-7 2-1.7 4.3-3.2 6-5.1 4.3-4.5 7.7 9.9 10.2 4.4.7-1.6 1-3.7 2.5-4.9 1.8-1.6 5.2-1.3 6.7-3 1.8-1.7 1.8-5.9 3.8-8 1.6-1.9 4.3-1.1 6.5-.9 2.4.3 3 0 5-1.2 7.2-5 6.4 6.9 14.3 1.6 1.7-1.1 3-3.1 4.8-3.8 2-1.3 11.6 1.5 7 3.4-2.8 1-6.5 1.3-8.7 3.6-1.6 1.6-1 4.1-2 5.9-.6 1.2-1.9 2.1-2.1 3.4s.5 3.6 0 4.7c-.7 2-5 1.4-7.3 1-2.6-.5-6-2-8.3-1-1.7.8-2 1.9-3.7 2.7-2.6 1.3-6.3 1-7.8 3.9q-1.7 2.4-3.8 4.4c-1.9 1.6-2.8 4.4-5 5.3-4 1.5-8.4-2.3-12.3-.4-2 1-3.4 3.2-5.3 4.4-1.6 1.1-3.6 1.5-5 2.8s-1.1 3.4-.7 5.2c2.1 6.3-.1 8.2-5 11.8-1.4 1-2.6 2.3-4.1 3-2 1-4.6 1-6.5 2.4-1.8 1.1-3.1 3-5.2 3.6-2.6.7-6.6 0-8.6 1.7-2.1 1.7 1.1 3.2 2.7 3.7 3.2 1.1 6.2 2.2 9.5 2.2q3.3-.2 6.8-.2 5.8.3 11.3 2.5c2.3.8 4.1 3.7 2.4 5.8-1.2 1.5-3.4 1.6-5 2.4-2 .9-2.5 3.2-4.1 4.7-4.9 4.6-3 4-2.2 10.2s-11.8.5-15.3-.1c-4-.8-3.4 1-.6 3.3 2.2 1.9 13.7 9.7 8.3 10.8-4.3.8-2.7 2.6-3.5 5.6-1 2-4.4 3.8-5.6 6.4-2.2 4.3-3 3.3-7.2 2-4.2-.5-7.3 1.7-10.4-3-1.2-1.6-1.8-4-3.6-5-2.5-1-4.3 2.5-7 3.3q-1 .3-2 .3-1.5 0-2.8-.7c-2.4-1-4.6-3.8-5.7-3.3q-1 .8-1.2 2.1l-1 4.8m-.7-147.9c4.3-2.8 9.4-6.2 13.4-1.6l6.6 6.2c1.7 1.6 3.6 2.9 4.8 4.8q1 2 2.6 3.6c1.9 1.6 4.5 2.1 5.9 4.3 1.1 1.8 3.7 5.8 2.6 6.9-2.3 1.5-5.8-2-8.4-2-3.3-.2-7 3.4-10.3 1-2.9-1.4-6.4-8.4-9.8-6.7-1.3 1.4-.2 3.7.2 5.4 1 3.6 2.7 7 2.6 10.8-.3 4.6-2.2 9-7.6 6.2m-3.4-107.1a16 16 0 0 1 2-6.6c1-1.7 2.4-3 3.6-1.6 2.8 5 1.2 11.3 2.8 16.6 1.6 3.9 3.8.2 5.7-2.6a9 9 0 0 0 1.6-5.6c-.5-3.6-.9-7.4.8-10.8 1.8-3.8 5.5-8.8 8.6-4.5 1.8 2 2.9 7.4 6.4 5.7 1-.5 2-1.6 3-2.1 2.2-1.2 4 1.4 6.6 2.9l2.8 1.9c1.7 1.4 3 4 1.4 5.8-1 1.2-2.5 1.7-3.5 2.8-1.8 1.7-1.7 5-3 7.5-.8 1.5-2 3-2.3 4.7-.6 4 8.6 3 10.5 1.8 1.3-.7 2.5-1.8 4-1.7 2.5.5 5.3 1.7 7.9 2.5 1.1.4 2.5.6 3.4-.4 2-2.1.9-5.2 1.5-7.8.4-1.9 2.2-3.4 3.2-5.2q.6-1.2 1.4-2.2c2.8-2.8 6.5 3 9.8 2.2 3-.3 4.4-4.3 6.8-5.7 3.7-1.8 4.9 3.3 3.2 6a20 20 0 0 1-5.5 5.8c-2.3 1.8-5.3 2.3-7.5 4.2-2 1.9-4 4.3-5.6 6.4-1.5 1.8-.7 3.6.8 5.1 1.4 1.6 3.2 3.2 5.1 2.9 1.7-.2 3.2-1.2 4.9-1.6q4.8-1.2 9.6-1.6c3.1.4.2 6.4 2.8 8.4 1.4 1.3 3.8 1.3 6 1.3s4.4.8 6.5 1c2.2.5 5-1.4 6.4-.5 2.6 2.1 1 7.7-2 9-2.2 1.2-5.5 0-8.5.1-3.1 0-6.2 2.4-9.3 1.2-1.8-.5-3.5-2.1-5.2-2.7-3.6-1.2-4.4 3.4-4.8 6.7-.5 2.8 1.9 8.4-2.3 8.1-3.3-.7-5.4-4.4-8-6-3.6-2.2-5.3 1.5-4.7 5.2.2 4 5 12.2.3 13.7-2.2.5-6 .6-7.7-1.4-1.6-1.9-1.2-4.6-2.2-6.8-.9-2.2-3.1-4-3.8-6.4-.4-1.4-.3-2.9-.5-4.3-.3-2.2-1.7-3.9-3-5.6-1.7-2-2.9-4.4-5.2-5a5 5 0 0 0-4 .6c-2.1 1.4-.8 4.4-.3 6.5.8 3 .8 5.9 1 8.8.9 5.5-1.6 8.2-6.9 5.3-2.4-1.3-4-3.6-6.2-5-1.7-1-3.9-1-5.8-1.7-2-.8-3.9-3-5.8-3S6 210 4 209.6c-5.5-1.8-5-5.8-11.2 0M-6.6 28q4.4 8.4 9.3 16.3c1.5 3 4.4 7 7.9 3.6 3.7-4.1 6.4-9.2 10.4-13 2.5-2.2 6.3-2 9.5-1.4 7.1 1.2 6-5 13.4-2.1q1.2.3 2-.1c.8-.8.3-2.5.4-4 0-2 2-3.5 1.2-5.3-.7-1.3-2.9-2.3-4.4-3.5-1.5-1.1-2.5-2.8-3.7-4.2-1.7-2.2-4.7-1.5-7.2-2.3-2-.5-5.6-3.6-3-5.3q1.4-.6 3-.9c3.2-.6 6.4-2.4 8.4-.1 1.6 1.7 2 4.4 3.3 6.2a3 3 0 0 0 5.6-.7l.7-3.9c.6-2 2.4-3 3.7-4.8q1.8-2.3 4-4.3"/><path fill="none" stroke="#ece2d1" stroke-miterlimit="10" stroke-width=".5" d="m215.6 1-1.5.3c-2.3.5-4.3-.6-6.1-1.6s-4.6-2.2-5-.5c.2 2.5 2.6 4.8 3.5 7.2 1.5 3.1 3.8 5.6 4.7 9.1.8 3.8.3 9.2-4.5 9.7-1.9.3-4.6.7-4.5 3 .2 4.3 5.6 7.7 5.3 11.3-.7 3.2-5.8 6.4-9 5.3-3.8-1.5-6-5.8-8.9-8.5-2.1-2-5-2.6-6.7-4.9-2.2-3-1.6-6.9-1.2-10.3.6-5.9-4.3-2-7.4-1.8-5.6.1-5.8-6.7-5.5-11.6.3-3.7-.7-5.8-4.1-2.4a25 25 0 0 1-5.4 4.3c-2.7 1.4-1.9 3.3-.1 5.3 1.8 2.3 4.4 5 4.8 8 .3 2.3-1.6 4-2.6 6.3-1.4 2.7.4 5.2 3.1 5.8 6.3 1.8 4.2 3.6 4.6 8.7.4 1.7 2.6 2.9 4.8 3.9 2.5 1.2 5.8 2.8 6.7 5 1 3-1 5.8-1.9 8.5-2 6.5-10 2.4-15 1.4-2.6-.7-5-2.3-7-2-2.3.3-4.7 3.3-3.8 5.7.4 1.3 1.8 2.6 3.2 3.8 2.6 2.5 8.2 5.5 8.6 9-.4 1.4-2.5 1.5-3.6 2.3-1.5.8-1.8 2.4-2.3 4-1 4.6-6.3 2.3-7.7 5.6-.4 2.2 2.2 4 2.6 6.2.5 2.4-1.7 5-.7 7.5.7 1.9 2.5 3.2 3.9 4.5 1.2 1 1.7 2.1 0 3-2.8 1.3-6.6 2-9-.1-3-2.7-5-7-4.7-10.8 0-2.3.8-4.6.5-6.9-.8-6-5.6-3.2-9.3-4.4-2-1-.5-3.6-.2-5.2 1.3-4-6-3.5-5.2-7.3.4-3 5.9-5.4 5.2-8.8-2.6-3.2-9.6 3-10.7-4.4-.3-1.9 0-3.9-.2-5.7-.3-2.6-2.2-4.6-3-7-.7-2.2.3-5.2-.6-7-1-2.1-4.2-2.8-6-1.3-2 2 0 5.3-.7 8.3-.2 2.3-1.8 4.1-2.3 6.4-.5 2.8 1.4 5.9 1 9-.2 3.5-5.1 6-2.7 9.4.8 1.2 2.2 2.2 2.9 3.4 1.2 3-4 3.8-6.2 5.5-2.3 1.3-5.8 6.8-7.7 2.2-.6-2.3.1-5-.4-7.3s-2-4.2-3.6-3.8c-2.3 1-2.5 4.5-5 5.4-2.2 1.1-5.8-.4-7.6.7-2.3 1.5-1.8 4.8-2.7 7.2l-1.3 3.2a29 29 0 0 0-1.7 17 22 22 0 0 1 .3 10.8c-.5 2.1-1.2 4.4-2.3 5.3s-2.2 0-2.5-1.4c-.5-2.5.5-5.3-.2-7.8-.7-2.9-3.3-5-4.9-7.6s-2.2-6.2-4.5-7.6c-1.7-1.8-7.8-.4-7-3.7.6-2 3.8-4.1 6.1-4.6 1.9-.6 4-.5 5.5-1.7 1.6-1.2 2.2-3.8 3.3-6.2 1.9-3.8 4.6-7.5 4.4-11.9 0-3.9-2.8-2.8-4.6-.6-1.8 1.9-3.5 4-5.6 4.6-2 .7-4.2 0-6.3.1-1.9 0-3.4 1-5.5 1.5-2.2.4-5.9.4-7.5-1.2-1.9-3.2 6.2-6 7.3-8.8 1.4-2.5-1.6-5.1-1.4-8 0-3.2 2.8-5.4 3.5-8.1 0-3-4.8-2.1-6.5-1.1-2.7 1.6-3.7 6.2-6.4 8.7-7.1 7.6-10.3 5-8.8-4.6.6-2.2 1.9-4.6 1-5.7-1.3-1.4-3.6-.7-5.9 0-3 1.3-6.7 1.2-9.6 3-2.4 1.4-4.1 4-7 4.7-2.6.8-5.9 1.4-7.2-.6-.8-1.1-1-2.5-1.6-3.7C0 50-4.5 49.9-7.5 47.8M519 116c-8.6 4.7-10.7 19.5-18.5 23.6-8.7 2.6-3.9 7.3-7.2 13.2-1.7 2.6-5.5 3.3-8 5-4.4 3.3-7 7.7-13 9-9.4 3-7.5-2.5-16.4 4.7-2.9 1.3-7.1 0-9.8 2-3.7 2.5-1.3 8.6-2.5 11.6-3.5 5-8.4 1.1-7.5 10.5.5 6.4-6.7 11.8-12.8 10.6-3.1-.6-4.6-4.4-7.7-4.8-3.3 0-6.8 3.8-10.5 3.9-1.3 0-1.8.2-3.1.3-4.1.3-8.2 2.4-10.5-2-2.5-4.1-2.3-9.3-3.6-13.8-.6-2.5.8-5.2.2-7.6-1.3-3.3-4.4-6-5-9.6-1.4-5.2-.4-10.4-1.3-14.5-2.5-6-6.4 2.7-7 5.5-1.3 4.2.3 8.6.2 13 0 3.8 1.5 7.5 1.5 11.2 0 2.5-.8 5-.7 7.4.1 2.8 1.3 5.8.8 8.6-.3 2.8-2.8 5.7-5.7 4.8-2.5-.7-4.3-3-6.7-4-2.8-1-7.3-1.3-9.2.6-2.9 2.9 0 10.5-5.6 10.7-2.2-.2-4.4-1.5-6.6-1.2-2.8.3-5.7 2.8-9 2.3-2.2 0-5.5-2.1-3-4.3 6.6-4.4 5-5.1 7.8-12 3.2-5 6.9-9-2.3-8.8-5 0-5.8-3.1-3-6.5 2.7-4.8 12.5-4.2 13.1-9.6-1.8-4.2-11.5-1.9-13.6-5.4-1-2.3 1.3-4.9 1.4-7.4.3-2.2.1-4.5 1.2-6.4q1.2-2 2-4c.5-1.8.5-3.7.8-5.6.9-3.8 4.6-7.4 4.7-11.7-.1-10.1-5.7-.9-8.1 2.6-3.7 5-8 6.7-9.3.6-1.3-7.3 1.3-16-.5-23-.7-3.5-4.4-5.3-5.5-1-.5 3.7-.5 8-2 11.5-1.7 5.2-2 11-2 16.4 0 2.8-1.2 5.5-2 8.2a38 38 0 0 0-1.2 14.4c.7 4.4-1.4 11-5.9 5.2-5.2-7-8.1-15.8-13.9-22.4-7.4-9-15.5-16.7-7.9 1.2 1.5 5.8 3.4 11.2 5.2 17a49 49 0 0 0 4.3 14.2c.8 2.4-.6 4.5-3.1 4.4-4.6 0-8-3.3-10.9-6.7-2.4-2.8-4.3-6.5-6.9-7-1.8-.3-4.6.7-4.2 3 .3 1.4 2.5 3 3.5 5.1s1 4.3 2 6.2c1 1.8 3.8 3 5.9 5 2.7 2.5 4.9 5.5 7.9 7.5 2.2 1.8 7.3 3.4 6 7-3.7 5.2-16.2-.8-21.8-2.1-3-1-8.4-3.5-7.2 1 1 3.4 4.6 5.2 7.4 7 2.6 1.8 4.3 4.7 6.8 6.4 5.2 3 4.3 4.5 3.2 10.1 0 8.1-2.3 5.9-8.6 6.8-2.6.6-4.6 3-6.7 2.6-4-2.2-1-8.7-4.5-11.3a7 7 0 0 0-6.9-1c-2.2 1-1.6 3.9-1.5 6-.3 2 .6 17.4-3 13.4-4-8.3-3-5.5-11-4.7-6.1 0-8.4-15.5-13.2-3.6-2 5.4-5-.4-9.2.5-11.3 3.5-7.7-3.1-15-8.2-8-8-6.8-3.7-14.4.4-5.3 2.3-10.2-3.6-13-7.2-1.6-3.1-.5-8.3 1.6-10.6 2.6-2.7 7.3-1.8 9.8-4.7 1.8-2.2.8-5.7 1.5-8.4 1.4-5.8 8.3-6.2 14.7-5.4l11 1.4c2.4.2 5 1.3 6.5 0q.2-.6-1.1-1.9c-2.4-2-5.7-4-6.7-7.1-1.4-3.7 1.3-7.8 4.3-10.4 4.2-3.7 1.3-5.8-2.9-3.7-5.6 2-8.3 9.9-14.5 9.6-1.4-.1-3-1-3-2.4 1.4-5.7 3.5-6.2-.5-12.4-4.8-8.3-9 8.8-13.9 1.7-1.7-2.9-4.5-2.2-7.6-.8-2.7 1-5.1 2.8-7.5 4-2.6 1.2-5.7 1-8.2 2.6-5.6 4.4-7.5-.1-11.5-4.1-4.3-4-8.9.4-13.2 1.9-5.8 1.4-9.6-2.9-5.4-8.3 3-4.1 1.2-9.6 2-14.4 1.4-5.6 5.3-3 8 0q3.1 3.3 6.5 6c9.4 8 8.8-1.7 13-1.8 3 1.2 5.3 5.5 9 6.2 5.4 1.9 7.8-3.3 6-8.1-.5-3.3-6.2-8-3-10.8 5.6-.9 10.4 4.3 14.5 7.4 1.3 1 2.7 2 4.3 2.1 15.4-2.3 10.3-6.5.7-13.3-2.3-1.6-4.2-3.5-1.6-4.9 2.8-1.2 6.3-1 9-2.5 6.6-3.2 7.4-9.6 2-13.9-2.4-1.8-3.8-6.7.8-5.4 2.9 1.1 4.6 4.2 6.9 6.3 2.4 2.4 5.6 3.7 7.6 6.4 2.2 2.5 2.5 7.1 5.7 8.6 2 .7 4.3-2.3 6.4-3 4.5-1.2 6.2-2.4 1.8-6.3-2.6-1.8-4-4.6-5.6-7.3-3-3.7-3.2-9 2.3-10.3 4.4-.6 9.3 1.7 12.9-1.7 4.9-4.4.8-6-3.8-6.2-3.6-.6-6.7-3.1-10.5-3.3-7.3.5-7.6 2.4-13.7-3.3-2.4-2.4-18.2 1.4-16-4.3 3-5 6.4-11.7 13.2-9.4 2.2.6 4.4 1.3 6.6.3q2-1 4-1.7c2.5-.8 5.7-.6 6.5-2 1-2.6-2.5-5-2.6-7.6-.5-4.4 4.9-3.5 7-1.3 2.5 2.4 9.4 7.7 12 4.4.6-3.5-4.3-7-4.2-10.3.6-1.5 3.8 2 4.9 2 2.9.5 2.8-3.8 3.9-5.5 1.3-3 6-1.1 6.8.3 1.4 2.5.2 14.5 3.7 11 1.8-2 4.3-6.5 7.5-4.5 2.3 1.5 2.9 5.8 5.4 6.1 3.1-.4 6-4 9.3-2 2.6 1.3 3.8 4.6 5 7 .6 1 1.1 2.3 2.3 2.3s3.4-2.8 5.7-2.9c2.1-.4 4.6 1.3 6.5.5 1.6-1 .6-4-1.2-5.7-1.5-1.5-3.6-2.2-5.3-3.3-2.7-1.6-4.4-4.5-6.5-7.2-2.6-2.7-5.4-7.1-1.2-10 2-1.6 5-2 7-3.6 3.8-3.7 6.7-11 13.3-11 6.4 0 8.9 7.4 14.5 9.2 3.4 1.6 7.6 3.3 6.2-1.2-.7-2-2.5-4.3-2.3-6.6.3-3.4 4.3-5 6.4-8.1 1.4-1.6 2-5-1-5-4.2.2-7.5 4-11.8 4-11.4.2-5.5-15.4.8-18.8 4-2.9 9 .5 13.5-.8 5.6-1.3 10.2-4.6 16-4"/><path fill="none" stroke="#ece2d1" stroke-miterlimit="10" stroke-width=".5" d="M519 210.2q-4.6 2.7-8.5 5.8c-3.3 2.8-5.4 6.3-9.2 7.4-2.8 1-6.7-.5-9.2 1.2-1.8 1.5-1 4.2-1 6.3.3 3.9-2.6 5-5.7 7-1.8.9-4.2 6-6.3 4.2-1.6-2-1.6-5.1-2.5-7.5-1.3-4.2-3.6-9.3-7.3-10.7-2.5-1-4.9.3-5 3-.3 2.7-.4 5.6-2.8 7.4-3.1 2.3-6.2 4.5-8.6 7.7-1.7 2.1-3.3 4.3-3.5 6.7 0 4.6 2.3 8.6-4.6 8.6-3.2.1-6-1.4-9.2-1.5-2.9-.1-6 2-8.9 3.3-2.3 1-4.7 2-4.8 3.2q.2 1.3 1.2 2c2.3 1.6 7.2 5 3.8 7.7-2.8 1.8-7 .8-8.8 4.4a8 8 0 0 1-3.4 3.4c-1.2.7-2.6 1.1-3.4 2.3-1.5 2.1-.6 6-2 8.7a10 10 0 0 1-5.7 5.1c-1.3.6-2.7 1-3.6 2-1 1.3-.6 3.6.1 5.8.8 3.4 3.3 6 4.2 9.2.4 2.3-1.2 4.8-3.5 5q-2.2.3-4.4-.3c-10.2-1-13.5 14.2-23.3 15q-2.4.5-4.7-.2c-3-1-5.8-5.3-8.4-1.3-1.4 2.1-2.3 5-4.7 6.1-3.5 1.7-7-1-10.4-1.8l-2.7-.7c-1.2-.4-2.4-1.2-2.2-2.7 1.2-5.6 8.7-3.5 12.6-5.7 4.5-3.5-2.8-11 4.3-16.8 1.9-2 3.3-3.6 5.7-4.5 1.9-.7 3.3-2 2.7-4.1-1.5-4.4-3.1-12.6 3-13.2 3.8-.5 8.3 1.7 11.5-.5 1.8-1.3 6.4-8.9 3.9-11-2-1.5-5 .3-7.4-.3-3.6-.8-4.2-5.5-7.1-7.3-7-4.8-14.5 6-21.7 1q-2.5-1.6-5.1-2.7c-2.7-1.2-5.7-1.3-8-2.8-4.2-3.1 1.9-6.6 5-6.5 7.4.3 7.8 1.8 11-5.4 1.5-2.7 4.8-4.5 6.8-7.2 1.6-2 2.8-4.2 4.8-5.8q2.5-1.6 5.5-1.7 1.2 0 1.9-.8c.7-1.1-1.3-4-1.8-6.4-1.3-4.1 2.7-6.2 6.2-6.4 6.4-.5 13.2.7 19.2-1 3.2-.6 6.3-2 9.5-2 3 .1 5.6 1.8 8.4 1.4 2-.3 4.2-1.6 6.2-1 1.7.7 2.8 2.8 5 4s6.2 3 7.5.4c.7-1.8 0-4.1 1.3-5.7 1-1.6 3.6-1.7 5.4-2.4a12 12 0 0 0 3.3-2c2.4-2.4 6-2.5 9-3.6q1.4-.4 1.9-1.8c.3-1.4-2-3.4-1.7-5 .6-2 3.6-2.4 4.6-4.2.7-1.3-.3-3.3-.2-5.2q.1-1.6.7-3.3c1.1-3.4-1-6.8-.6-10.4.4-4.3 4.8-1.5 7.4-1.5 2.6.3 5-1.5 7.1-1.7 3.2 0 6.3 1.7 9.4 0 3.4-1.6 4.9-4.5 7.4-7.4q2.6-2.6 5.8-4.6c16.7-10.6 17.6-21.2 26.2-36.2"/><path fill="none" stroke="#ece2d1" stroke-miterlimit="10" stroke-width=".5" d="M512.2 198.5c-.7.4-3.3.5-2.8 1.9 1.4 3.2 4.9 6.5 8.7 6.2m-.2 138.7c-3.2 2.1-5.2 5.4-8 8q-2.8 2.5-5.2 5.2c-1.3 1.3-2.6 3.2-4.4 2-1.7-1.3-2-4.7-1.7-7 .2-1.8.9-3.6 1-5.4.1-2.8-1.3-5.4-2-8.5-.5-1.5-.6-4.5-2.6-4.5-1 0-2.1 1.1-2.9 1.9-3.9 3.6-5.8 8.5-8.8 12.8-3.6 4.6-7 9.3-7.7 15.1-.3 2.8.2 5.8-.6 8.6-.8 3.4-3.6 6.2-5.2 9.5-.7 1.1-2.2 5.4-3.5 3.9-.7-1.1-.6-2.2-.7-3.6q0-4.5-1.2-8.9c-5.3-15 7-9.3 4.8-23-.7-4.3-2.8-8.5-.3-12.1 1.3-2 3.3-3.3 5.1-4.6 2.3-1.8 7-3.7 5-7.1-.8-1.4-2.3-2.8-2.9-4.7q-.5-1.8-.5-3.8l.2-4.2c.4-3 2.3-5.2 3.7-8 2.3-4 3-9.6 5.6-13.1 3-1.9 2.5 11 4.1 12.8 1.1 2.3 4.6 6 6.5 5.3 2.6-1.4 2.3-6.7 5.8-6.8 3.8.5 7 5.7 11 1.7 2.7-3.2-1.8-6.4-1.8-9.9-.3-3.7 2.6-7.7.7-10-1.8-2.3-5.1-2.6-7.6-4-3-1.5-2.7-3.8.6-4.5 4.9-.9 9.7 1.2 14.4 2.2"/></svg>