<?xml version="1.0" encoding="UTF-8"?>
<svg id="Layer_1" data-name="Layer 1" xmlns="http://www.w3.org/2000/svg" viewBox="0 0 50 46">
  <defs>
    <style>
      .cls-1 {
        fill: #b42527;
      }

      .cls-2 {
        fill: #ffcf7f;
      }
    </style>
  </defs>
  <rect class="cls-1" width="50" height="46"/>
  <path class="cls-2" d="M21,21.96954H5.01459c-1.65441,0-2.99655-1.33934-2.99999-3.09099l-.01463-7.90901h6.00003v4c0,.55228.44772,1,1,1h8c.55228,0,1-.44772,1-1v-6.96954h-2V2h8v16.8723c0,1.75409-1.34315,3.09724-3,3.09724ZM48,18.96954V1.94832h-6v13.02122c0,.55228-.44772,1-1,1h-1v-7.98939h-6v7c0,.55228-.44772,1-1,1h-1V1.96954h-6v20h19c1.65685,0,3-1.34315,3-3ZM47.99999,23.96954h-19c-1.65685,0-3,1.34315-3,3v14c0,1.65685,1.34315,3,3,3h19.00001l-.00022-11h-5.99979v5h-9c-.55228,0-1-.44772-1-1v-6c0-.55228.44772-1,1-1h14.99988l.00012-6ZM21,32h0,0c1.65685,0,3,1.34314,3,4v8h-6v-5c0-.55228-.44772-1-1-1h-9v6H2v-20l18.99519-.03046c1.65873-.00266,3.00481,1.34126,3.00481,3v2.03047c0,1.65685-1.34314,3-3,3ZM17,32c.55228,0,1-.44771,1-1h0c0-.55229-.44771-1-1-1h-9v2h9Z"/>
</svg>