<?xml version="1.0" encoding="UTF-8"?>
<svg id="Layer_1" data-name="Layer 1" xmlns="http://www.w3.org/2000/svg" viewBox="0 0 512 256">
  <defs>
    <style>
      .cls-1 {
        fill: #ffcf7f;
      }
    </style>
  </defs>
  <path class="cls-1" d="M10.42765,53.57513V10.42799h491.14436v43.14714h-5.95893V16.38692H16.38658v37.1882h-5.95893ZM495.61308,144.50131v95.11176H16.38658v-95.11176h-5.95893v101.0707h491.14436v-101.0707h-5.95893ZM99.50814,190.91336l-7.18535-14.85369c3.86109-1.76979,5.52322-4.77253,5.52322-8.95513,0-4.50412-2.14513-8.9013-6.43466-10.72492-2.30589-.96527-4.98712-1.23296-7.45376-1.23296h-9.86658v35.7667h9.65199l-.16076-14.85369,5.46939,14.85369h10.4565ZM83.74301,171.71631v-8.52669c2.73506,0,4.50484,1.12603,4.50484,4.02184,0,2.25279-1.39444,4.50484-3.86109,4.50484h-.64376ZM126.48483,190.91336v-8.57979h-8.25827v-5.46939h7.39993v-8.09752h-7.39993v-5.2017h8.25827v-8.4183h-17.91026v35.7667h17.91026ZM162.25517,190.91336l-7.56142-35.7667h-11.79712l-8.63289,35.7667h9.9735l.80451-4.55794h6.48849l.75069,4.55794h9.97423ZM146.32855,178.7409l2.25279-15.01445,1.82289,15.01445h-4.07567ZM187.83741,190.91336v-8.57979h-7.23917v-27.18691h-9.65199v35.7667h16.89116ZM213.41966,163.72645v-8.57979h-20.26998v8.57979h5.30863v27.18691h9.65272v-27.18691h5.30863ZM247.741,155.14666h-9.9735l-3.37881,11.04643-3.37809-11.04643h-10.08116l8.9013,20.64459v15.12211h9.65272v-15.12211l8.25755-20.64459ZM300.45924,170.26804h-13.45925v7.50759h3.53884c0,2.14513-.69686,5.14787-3.37809,5.14787-3.70033,0-3.6465-6.32773-3.6465-8.8482,0-2.73433,0-10.93878,3.96802-10.93878,1.87672,0,2.68123,2.0913,2.84199,3.6465l9.3843-3.43192c-2.30589-5.30936-6.2739-8.8482-12.28012-8.8482-10.40268,0-13.78076,9.9204-13.78076,18.71478,0,8.84748,3.43192,18.33944,13.78076,18.33944,4.50484,0,8.52669-2.0913,10.67109-6.16697,2.0913-4.02184,2.35971-9.22355,2.35971-13.67383v-1.44827ZM335.90879,190.91336l-7.18535-14.85369c3.86109-1.76979,5.52322-4.77253,5.52322-8.95513,0-4.50412-2.14513-8.9013-6.43466-10.72492-2.30589-.96527-4.98712-1.23296-7.45376-1.23296h-9.86658v35.7667h9.65199l-.16076-14.85369,5.46939,14.85369h10.4565ZM320.14365,171.71631v-8.52669c2.73506,0,4.50484,1.12603,4.50484,4.02184,0,2.25279-1.39444,4.50484-3.86109,4.50484h-.64376ZM370.71458,172.68158c0-8.3121-3.70033-18.17868-13.45925-18.17868-9.81347,0-13.72766,9.75965-13.72766,18.17868,0,4.7187.91144,10.34885,4.02112,14.10301,2.41354,2.89509,5.95239,4.77253,9.75965,4.77253,10.02806,0,13.40615-10.51033,13.40615-18.87554ZM360.68725,173.05692c0,2.30589-.26841,9.4374-3.5934,9.4374-3.32426,0-3.53884-7.18535-3.53884-9.49123s.32151-9.49123,3.6465-9.49123c3.32426,0,3.48574,7.23917,3.48574,9.54506ZM404.98427,155.14666h-9.65272v23.11124c0,1.82361,0,4.23643-2.46664,4.23643-2.41282,0-2.46664-2.41282-2.46664-4.23643v-23.11124h-9.65199v23.96958c0,3.59267.69686,6.86383,3.48502,9.33048,2.46737,2.19823,5.79163,3.1104,9.06279,3.1104,3.00274,0,5.79163-.80451,8.09679-2.78889,2.78889-2.35899,3.5934-4.7187,3.5934-8.31138v-25.3102ZM415.87431,155.14666v35.7667h9.65199v-11.74329c8.20445.75069,14.04918-3.16423,14.04918-11.85095,0-4.61177-2.0913-8.90203-6.43466-10.83185-2.46664-1.07293-5.2548-1.34061-7.93603-1.34061h-9.33048ZM425.5263,171.17948v-8.20372h.64376c2.35899,0,3.6465,1.98364,3.6465,4.1826,0,2.30589-1.44827,4.02112-3.80726,4.02112h-.483ZM36.33413,66.18818h-12.58418v44.04534c0,4.00439.09456,9.53342-5.33918,9.53342-2.86017,0-4.95802-1.42936-6.67325-3.52721v12.58418c2.86017,1.52538,6.10151,2.00256,9.34284,2.00256,6.29209,0,11.82185-3.43264,13.91824-9.53415,1.14494-3.33662,1.33552-6.95912,1.33552-10.39104v-44.7131ZM87.3415,66.18818h-12.58418v42.80584c0,4.76671.19058,10.39176-6.19752,10.39176-6.48267,0-6.29209-6.1968-6.29209-10.96351v-42.23409h-12.58418v48.3356c0,11.24938,8.29392,16.30269,18.68568,16.30269,6.29209,0,13.44252-1.71596,16.87443-7.53159,1.90727-3.24133,2.09785-6.10151,2.09785-9.72473v-47.38197ZM126.431,129.77754v-11.91714h-13.15592v-51.67222h-12.58418v63.58937h25.74009ZM148.07578,129.77754v-63.58937h-12.58563v63.58937h12.58563ZM186.87723,129.77754v-11.72656h-12.86932v-14.30013h11.15409v-12.01243h-11.15409v-13.72839h12.67874v-11.82185h-25.26437v63.58937h25.45495ZM285.26803,66.18818h-13.15592l-6.29354,38.18485-8.29392-38.18485h-9.91458l-8.29392,37.84782-6.76927-37.84782h-12.87077l12.87077,63.58937h10.96351l9.24828-37.84782,8.38848,37.84782h10.96496l13.15592-63.58937ZM330.93767,129.77754l-11.05953-28.88687c6.19607-3.81308,9.05624-8.96168,9.05624-16.2074,0-5.9102-2.47755-12.107-7.53159-15.44435-4.00366-2.66886-9.15226-3.05075-13.82368-3.05075h-13.6331v63.58937h12.58563v-29.26803l11.15409,29.26803h13.25194ZM306.53165,76.10349h2.38299c5.52976,0,7.81674,3.52721,7.81674,8.67581,0,5.14787-2.66959,8.86566-8.10334,8.86566-.66776,0-1.43009,0-2.09639-.09529v-17.44618ZM355.06001,129.77754v-63.58937h-12.58418v63.58937h12.58418ZM389.47664,94.40801v11.24938h8.00877c-.09602,5.1486-.85834,13.72839-7.72217,13.72839-9.0577,0-9.34284-15.06319-9.34284-21.35527,0-6.00622.66776-21.73644,9.24682-21.73644,4.76744,0,5.81636,5.05258,6.38811,8.7711l12.20301-4.76671c-2.66959-8.96168-8.96168-15.06319-18.68568-15.06319-17.82879,0-22.59478,18.39981-22.59478,32.98582,0,14.11028,5.43375,32.60538,22.59478,32.60538,10.77293,0,17.15958-8.29464,19.25743-18.11394.95291-4.38555,1.14494-8.96168,1.14494-13.44252,0-1.62067,0-3.24133-.09602-4.862h-20.40237ZM459.64687,129.77754v-63.58937h-12.58418v23.54841h-12.67874v-23.54841h-12.58563v63.58937h12.58563v-28.12381h12.67874v28.12381h12.58418ZM500.26248,77.81945v-11.63127h-32.22276v11.63127h9.81857v51.9581h12.58563v-51.9581h9.81857Z"/>
</svg>