<?xml version="1.0" encoding="UTF-8"?>
<svg id="Layer_1" data-name="Layer 1" xmlns="http://www.w3.org/2000/svg" viewBox="0 0 98 24">
  <defs>
    <style>
      .cls-1 {
        fill: #b42527;
      }
    </style>
  </defs>
  <path class="cls-1" d="M65,8h-9v2h9c.55225,0,1-.44775,1-1s-.44775-1-1-1Z"/>
  <path class="cls-1" d="M0,0v24h98V0H0ZM24,18.87231c0,1.75415-1.34326,3.09717-3,3.09717H5.01465c-1.65454,0-2.99658-1.33936-3-3.09094l-.01465-7.90906h6v4c0,.55225.44775,1,1,1h8c.55225,0,1-.44775,1-1v-6.96948h-2V2h8v16.87231ZM48,19.02124c0,1.65674-1.34326,3-3,3h-19V2.02124h6v14.0105h1c.55225,0,1-.44763,1-1v-7h6v7.9895h1c.55225,0,1-.44775,1-1V2h6v17.02124ZM72,7c0,1.65686-1.34326,3-3,3,1.65674,0,3,1.34314,3,4v8h-6v-5c0-.55225-.44775-1-1-1h-9v6h-6V2l18.99512-.03052c1.65869-.00269,3.00488,1.34131,3.00488,3v2.03052ZM81,16h9v-5h5.99976l.00024,11h-19c-1.65674,0-3-1.34314-3-3V5c0-1.65686,1.34326-3,3-3h19v6h-15c-.55225,0-1,.44775-1,1v6c0,.55225.44775,1,1,1Z"/>
</svg>