<?xml version="1.0" encoding="UTF-8"?>
<svg id="Layer_1" data-name="Layer 1" xmlns="http://www.w3.org/2000/svg" viewBox="0 0 50 46">
  <defs>
    <style>
      .cls-1 {
        fill: #b42527;
      }
    </style>
  </defs>
  <path class="cls-1" d="M0,0v46h50V0H0ZM24,29c0,1.65686-1.34326,3-3,3,1.65674,0,3,1.34314,3,4v8h-6v-5c0-.55225-.44775-1-1-1h-9v6H2v-20l18.99512-.03052c1.65869-.00269,3.00488,1.34131,3.00488,3v2.03052ZM24,18.87231c0,1.75415-1.34326,3.09717-3,3.09717H5.01465c-1.6543,0-2.99658-1.33936-3-3.09094l-.01465-7.87854h6v3.96948c0,.55225.44775,1,1,1h8c.55225,0,1-.44775,1-1v-6.96948h-2V2h8v16.87231ZM33,37.96948h9v-5h5.99976l.00024,11h-19c-1.65674,0-3-1.34302-3-3v-14c0-1.65674,1.34326-3,3-3h19v6h-15c-.55225,0-1,.44775-1,1v6c0,.55225.44775,1,1,1ZM48,18.96948c0,1.65698-1.34326,3-3,3h-19V1.96948h6v14.01062h1c.55225,0,1-.44763,1-1v-7h6v7.98938h1c.55225,0,1-.44775,1-1V1.94824h6v17.02124Z"/>
  <path class="cls-1" d="M17,30h-9v2h9c.55225,0,1-.44775,1-1s-.44775-1-1-1Z"/>
</svg>